<svg width="80" height="80" viewBox="0 0 80 80" fill="none" xmlns="http://www.w3.org/2000/svg">
<g clip-path="url(#clip0_588_1015)">
<circle cx="40" cy="39.7755" r="40" fill="#F5F5F5"/>
<path fill-rule="evenodd" clip-rule="evenodd" d="M31.7386 41.5543C31.7386 46.3851 35.6693 50.3103 40.5075 50.3103C45.3607 50.3103 49.2766 46.3851 49.2766 41.5543C49.2766 36.7235 45.3475 32.8001 40.5075 32.8001C35.6693 32.8001 31.7386 36.7235 31.7386 41.5543ZM40.5075 41.1143V34.5876C40.5075 34.441 40.6413 34.3346 40.7751 34.3346C43.3546 34.4281 45.5876 35.8691 46.7903 37.9793C46.8563 38.1113 46.816 38.2726 46.684 38.3386L40.8814 41.3416C40.7091 41.4351 40.5075 41.3013 40.5075 41.1143Z" fill="#5468FF"/>
<path fill-rule="evenodd" clip-rule="evenodd" d="M56.2066 18H23.7934C20.5887 18 18 20.5905 18 23.7787V56.2085C18 59.4113 20.6033 62 23.7934 62H56.2066C59.4095 62 62 59.3985 62 56.2085V23.7933C62 20.5905 59.3967 18 56.2066 18ZM44.5852 26.3138V27.8226C44.5852 27.9968 44.4256 28.116 44.2643 28.0756C43.0488 27.742 41.7912 27.5696 40.5206 27.5696C39.2095 27.5683 37.9047 27.7523 36.645 28.116C36.4708 28.1563 36.3113 28.0353 36.3113 27.863V26.3138C36.3117 25.8074 36.5132 25.3219 36.8714 24.9641C37.2296 24.6062 37.7153 24.4052 38.2217 24.4053H42.6748C43.1812 24.4052 43.6669 24.6062 44.0251 24.9641C44.3833 25.3219 44.5848 25.8074 44.5852 26.3138ZM31.6198 29.0363L32.3807 29.7971C32.487 29.9181 32.4738 30.1051 32.3403 30.1858C31.7267 30.6267 31.1504 31.1173 30.617 31.6525C30.088 32.1838 29.6008 32.755 29.1595 33.3611C29.0532 33.4803 28.879 33.5078 28.758 33.3886L28.01 32.6406C27.8322 32.464 27.6912 32.2539 27.5949 32.0224C27.4986 31.791 27.4491 31.5429 27.4491 31.2922C27.4491 31.0416 27.4986 30.7934 27.5949 30.562C27.6912 30.3306 27.8322 30.1205 28.01 29.9438L28.9193 29.0363C29.0966 28.8589 29.3071 28.7182 29.5388 28.6222C29.7704 28.5261 30.0188 28.4767 30.2696 28.4767C30.5204 28.4767 30.7687 28.5261 31.0004 28.6222C31.232 28.7182 31.4425 28.8589 31.6198 29.0363ZM28.0628 41.5543C28.0628 34.683 33.6361 29.117 40.5075 29.117C47.3916 29.117 52.9521 34.6683 52.9521 41.5415C52.9521 48.4146 47.3788 53.9806 40.5075 53.9806C33.6361 53.9806 28.0628 48.4275 28.0628 41.5543Z" fill="#5468FF"/>
</g>
<defs>
<clipPath id="clip0_588_1015">
<rect width="80" height="80" fill="white"/>
</clipPath>
</defs>
</svg>
