<svg width="80" height="80" viewBox="0 0 80 80" fill="none" xmlns="http://www.w3.org/2000/svg">
<g clip-path="url(#clip0_588_982)">
<circle cx="40" cy="39.7755" r="40" fill="#F5F5F5"/>
<path d="M56.8227 31.6814C56.5591 31.8884 51.9045 34.5426 51.9045 40.4444C51.9045 47.2708 57.8273 49.6858 58.0045 49.7456C57.9773 49.8928 57.0636 53.053 54.8818 56.273C52.9364 59.1066 50.9045 61.9356 47.8136 61.9356C44.7227 61.9356 43.9273 60.1186 40.3591 60.1186C36.8818 60.1186 35.6455 61.9954 32.8182 61.9954C29.9909 61.9954 28.0182 59.3734 25.75 56.1534C23.1227 52.3722 21 46.498 21 40.9228C21 31.9804 26.7455 27.2378 32.4 27.2378C35.4045 27.2378 37.9091 29.2342 39.7955 29.2342C41.5909 29.2342 44.3909 27.1182 47.8091 27.1182C49.1045 27.1182 53.7591 27.2378 56.8227 31.6814ZM46.1864 23.3324C47.6 21.635 48.6 19.2798 48.6 16.9246C48.6 16.598 48.5727 16.2668 48.5136 16C46.2136 16.0874 43.4773 17.5502 41.8273 19.4868C40.5318 20.9772 39.3227 23.3324 39.3227 25.7198C39.3227 26.0786 39.3818 26.4374 39.4091 26.5524C39.5545 26.58 39.7909 26.6122 40.0273 26.6122C42.0909 26.6122 44.6864 25.2138 46.1864 23.3324Z" fill="black"/>
</g>
<defs>
<clipPath id="clip0_588_982">
<rect width="80" height="80" fill="white"/>
</clipPath>
</defs>
</svg>
