<svg width="80" height="80" viewBox="0 0 80 80" fill="none" xmlns="http://www.w3.org/2000/svg">
<g clip-path="url(#clip0_72_403)">
<circle cx="40" cy="39.7755" r="40" fill="#F5F5F5"/>
<path d="M61.5927 17.7755L57.7124 60.9705L40.2703 65.7755L22.8762 60.9772L19 17.7755H61.5927Z" fill="#264DE4"/>
<path d="M54.3904 58.22L57.7064 21.3079H40.2963V62.1027L54.3904 58.22Z" fill="#2965F1"/>
<path d="M27.8861 37.3308L28.364 42.6292H40.2963V37.3308H27.8861Z" fill="#EBEBEB"/>
<path d="M40.2963 26.6064H40.2779H26.9258L27.4105 31.905H40.2963V26.6064Z" fill="#EBEBEB"/>
<path d="M40.2963 56.6043V51.0916L40.273 51.0978L34.3345 49.5044L33.9549 45.2786H31.0693H28.6022L29.3493 53.598L40.2718 56.6111L40.2963 56.6043Z" fill="#EBEBEB"/>
<path d="M46.8439 42.6292L46.2249 49.501L40.2779 51.096V56.6085L51.2091 53.598L51.2893 52.7028L52.5423 38.7536L52.6724 37.3308L53.635 26.6064H40.2779V31.905H47.7915L47.3063 37.3308H40.2779V42.6292H46.8439Z" fill="white"/>
</g>
<defs>
<clipPath id="clip0_72_403">
<rect width="80" height="80" fill="white"/>
</clipPath>
</defs>
</svg>
