<svg width="80" height="80" viewBox="0 0 80 80" fill="none" xmlns="http://www.w3.org/2000/svg">
<g clip-path="url(#clip0_72_524)">
<circle cx="40" cy="39.7755" r="40" fill="#F5F5F5"/>
<path d="M37.7175 11.0149C37.582 11.0292 37.1469 11.0791 36.7546 11.1148C31.1768 11.6996 25.6846 14.0605 21.2052 17.8121C20.3778 18.4969 18.4947 20.3798 17.81 21.2072C14.101 25.6364 11.9326 30.6078 11.1337 36.492C10.9554 37.7973 10.9554 42.2051 11.1337 43.5104C11.9326 49.3947 14.101 54.366 17.81 58.7952C18.4947 59.6226 20.3778 61.5056 21.2052 62.1903C25.6346 65.8992 30.6062 68.0674 36.4907 68.8663C37.796 69.0446 42.204 69.0446 43.5093 68.8663C49.3938 68.0674 54.3654 65.8992 58.7948 62.1903C59.6222 61.5056 61.5053 59.6226 62.19 58.7952C65.899 54.366 68.0674 49.3947 68.8663 43.5104C69.0446 42.2051 69.0446 37.7973 68.8663 36.492C68.0674 30.6078 65.899 25.6364 62.19 21.2072C61.5053 20.3798 59.6222 18.4969 58.7948 17.8121C54.3796 14.1175 49.3582 11.9207 43.5521 11.1433C42.9244 11.0577 42.0114 11.022 40.321 11.0078C39.0299 10.9935 37.853 11.0006 37.7175 11.0149ZM38.0742 14.0961C38.0742 14.9306 38.1312 16.7423 38.2097 18.4612C38.2525 19.3028 38.3024 20.5082 38.3238 21.1359C38.4023 23.3612 38.6376 29.2027 38.6733 29.7233L38.709 30.244L38.388 30.2084C38.2097 30.1941 38.0456 30.1513 38.0171 30.1299C37.9957 30.1014 37.9458 29.6092 37.9172 29.0315C37.7888 26.4923 37.368 16.6424 37.3252 15.2017L37.2824 13.6183L37.4821 13.5897C37.5891 13.5755 37.7674 13.5541 37.8816 13.5469L38.0742 13.5398V14.0961ZM44.9002 13.925C44.9073 13.9321 44.9287 16.0861 44.9501 18.7108C44.9787 21.3427 45.0143 23.7036 45.0357 23.9603C45.0571 24.2242 45.05 24.4525 45.0143 24.4667C44.9858 24.4881 44.8075 24.4881 44.6292 24.4667L44.3011 24.4382L44.2511 22.3626C44.2226 21.2143 44.1869 19.9447 44.1727 19.5311C44.1156 18.2686 44.0657 13.982 44.1085 13.875C44.137 13.7966 44.2155 13.7894 44.515 13.8394C44.7219 13.8822 44.8931 13.9178 44.9002 13.925ZM28.4021 16.3143C28.4449 16.3785 28.7802 20.3085 29.1939 25.451C29.3294 27.1985 29.4649 28.7961 29.4863 28.9958C29.522 29.3596 29.5148 29.3739 29.2866 29.5165C29.1582 29.595 29.0298 29.6592 29.0013 29.6592C28.9799 29.6592 28.9371 29.4737 28.9157 29.2455C28.8158 28.3182 28.4307 23.8391 28.1596 20.6009C28.0027 18.6966 27.8601 16.9919 27.8387 16.8065C27.803 16.4926 27.8101 16.4641 27.9956 16.3643C28.2238 16.243 28.3522 16.2216 28.4021 16.3143ZM48.0386 17.748C48.2383 17.8193 48.2597 17.8549 48.3025 18.2615C48.3739 18.9747 48.3525 22.384 48.274 22.384C48.0671 22.384 47.6392 22.1415 47.6035 22.006C47.5821 21.9204 47.5607 20.9076 47.5607 19.7593C47.5607 17.4413 47.5322 17.5768 48.0386 17.748ZM34.8644 18.0832C34.8644 18.2758 34.9143 19.3385 34.9714 20.4583C35.0285 21.5781 35.0927 22.9974 35.1212 23.6108C35.1711 24.8519 35.1854 24.8091 34.7075 24.8376C34.4721 24.8447 34.4721 24.8447 34.4578 24.4881C34.4436 24.2884 34.4079 23.6679 34.3651 23.0973C34.3295 22.5267 34.2439 21.2928 34.1868 20.3513C34.1297 19.4098 34.0584 18.4755 34.037 18.2758C33.9942 17.9191 34.0014 17.9049 34.1939 17.8335C34.3081 17.7907 34.5078 17.7551 34.6362 17.7551C34.8644 17.748 34.8644 17.748 34.8644 18.0832ZM54.6507 19.0603L54.8932 19.1602L54.9431 20.1159C54.9645 20.6366 54.9788 21.7635 54.9645 22.6123L54.9431 24.1672L54.6435 24.0174L54.344 23.8747L54.3226 21.5068C54.3083 20.2015 54.3154 19.096 54.3297 19.0461C54.3582 18.9391 54.3582 18.9391 54.6507 19.0603ZM41.6263 19.9947C41.6691 20.0375 41.7689 23.4967 41.7761 25.2513L41.7832 26.3069L41.4479 26.257C41.2554 26.2356 41.0984 26.2142 41.0913 26.207C41.0699 26.1928 40.8559 20.9076 40.8559 20.3941V19.8663L41.2197 19.9091C41.4265 19.9376 41.6049 19.9733 41.6263 19.9947ZM58.053 20.5011C58.1386 20.6009 58.1529 22.1629 58.1743 30.7789C58.1957 40.6717 58.1957 40.9284 58.0673 40.9284C57.9888 40.9284 57.8818 40.8856 57.8176 40.8357C57.7106 40.7573 57.6964 39.8942 57.6607 31.4423C57.6322 26.3212 57.5965 21.6708 57.5751 21.1073L57.5323 20.0803L57.7392 20.23C57.8604 20.3156 57.9959 20.4369 58.053 20.5011ZM51.6549 21.9632C51.6906 21.9918 51.7262 22.3983 51.7334 22.8619C51.769 24.4382 51.7762 34.1027 51.7405 34.1312C51.7262 34.1455 51.5979 34.1098 51.4552 34.0527L51.1984 33.9458V27.876V21.8134L51.3981 21.8562C51.5051 21.8848 51.6193 21.9276 51.6549 21.9632ZM31.9685 22.3626C31.9899 22.5552 32.0256 22.9903 32.047 23.3469C32.0684 23.6964 32.1183 24.4953 32.1611 25.1158C32.2467 26.3711 32.2324 26.4495 31.8259 26.4495C31.6119 26.4495 31.5833 26.4282 31.5548 26.2142C31.4835 25.7934 31.2338 22.2842 31.2695 22.2271C31.3052 22.1772 31.6761 22.0488 31.8473 22.0346C31.8901 22.0274 31.9471 22.1772 31.9685 22.3626ZM20.1709 24.1814C20.2494 24.9375 20.4063 26.5209 20.5204 27.6977C20.6417 28.8746 20.7416 29.8731 20.7416 29.9159C20.7416 30.0015 20.1923 30.2725 20.1353 30.2155C20.0996 30.1798 19.3863 23.8676 19.3863 23.5823C19.3863 23.4111 19.9356 22.6907 20.0069 22.7692C20.0283 22.7835 20.0996 23.4183 20.1709 24.1814ZM48.1385 24.9303L48.3453 25.0516L48.3525 26.5922C48.3596 27.4338 48.3739 28.3753 48.3739 28.682C48.3881 29.3239 48.3097 29.4309 47.9245 29.2954L47.7034 29.2169V28.6035C47.7034 28.2612 47.682 27.2698 47.6534 26.3925L47.6106 24.8091H47.7747C47.8603 24.8091 48.0243 24.8661 48.1385 24.9303ZM23.3022 27.6977C23.4306 29.0672 23.6375 31.3781 23.773 32.8331L24.0155 35.4721L23.7373 35.7503L23.4663 36.0284L23.4163 35.465C23.3878 35.1511 23.2452 33.6961 23.0954 32.2268C22.9456 30.7575 22.7316 28.6249 22.6246 27.4909L22.4249 25.4367L22.7031 25.18C22.9527 24.9446 22.9812 24.9375 23.0312 25.0658C23.0597 25.1372 23.181 26.3212 23.3022 27.6977ZM17.9598 28.5608C18.1167 29.9658 18.5304 33.7033 18.887 36.8629C19.2437 40.0226 19.5789 43.0682 19.6431 43.6388C19.7002 44.2094 19.8 45.0724 19.8571 45.5645C19.957 46.399 19.957 46.4561 19.8428 46.5417C19.6716 46.6701 19.6003 46.6558 19.6003 46.506C19.6003 46.4418 19.5361 45.8998 19.4577 45.3149C19.3293 44.3377 19.1153 42.683 18.6374 38.967C18.5375 38.2181 18.345 36.7274 18.2094 35.6504C18.0668 34.5734 17.8599 32.9686 17.7458 32.0842C17.6317 31.1998 17.4391 29.6877 17.3178 28.7105C17.1894 27.7405 17.111 26.8775 17.1324 26.7848C17.1823 26.5922 17.6031 25.9217 17.6459 25.9645C17.6602 25.9859 17.8029 27.1485 17.9598 28.5608ZM15.7772 31.6348C15.8842 32.4907 16.0839 34.0527 16.2194 35.1155C16.3549 36.1711 16.5261 37.4906 16.6046 38.0398L16.7401 39.0383L16.5903 39.1667C16.5047 39.238 16.4191 39.2666 16.3906 39.238C16.362 39.2095 16.305 38.9242 16.2622 38.6104C16.2194 38.2966 15.9555 36.4635 15.6702 34.5449L15.1637 31.05L15.3278 30.565C15.4134 30.3011 15.5061 30.0871 15.5275 30.0871C15.556 30.0871 15.663 30.7861 15.7772 31.6348ZM54.936 30.7005C55.0358 30.8003 55.0501 31.2426 55.0501 34.5164V38.2181H54.8504C54.4153 38.2181 54.4224 38.3251 54.3939 34.2739L54.3725 30.5864H54.6007C54.722 30.5864 54.8789 30.6363 54.936 30.7005ZM39.3224 31.9772C40.9344 32.2197 42.3395 32.669 43.7304 33.3823C44.6292 33.8459 45.0571 34.1669 46.0557 35.1226C47.5393 36.542 48.4523 37.783 49.3082 39.5376C50.5565 42.091 51.0415 44.352 51.6549 50.4146C51.9331 53.1321 52.2969 58.0606 52.3753 60.0791C52.3967 60.6639 52.4467 61.6268 52.4895 62.2188C52.5679 63.4741 52.6606 63.303 51.5551 63.8379C50.0215 64.5797 48.545 65.0932 46.5978 65.5711C44.2155 66.1559 42.6748 66.3414 40.321 66.3485L38.6091 66.3556L38.6234 65.5354C38.6234 65.0861 38.6662 64.0376 38.709 63.2174C38.923 59.2446 38.8802 54.2305 38.602 51.4488C38.4451 49.8511 38.1383 47.9111 37.9672 47.4832C37.9315 47.3904 38.0956 47.312 38.8017 47.0695C40.0927 46.6201 41.2126 46.0567 41.3838 45.7785C41.6905 45.2507 41.1412 44.4947 40.4422 44.4947C40.321 44.4947 39.9572 44.623 39.622 44.7728C38.0242 45.5075 34.8216 46.3705 32.9742 46.5631C31.6975 46.6986 29.7146 46.6201 28.3379 46.3705C27.589 46.235 26.248 45.7286 25.1282 45.1508C23.8372 44.4804 23.0454 43.5888 22.8101 42.5332C22.6817 41.9626 22.7173 40.8214 22.8814 40.1795C23.0597 39.4734 23.559 38.4463 24.0155 37.8472C26.0483 35.1725 30.2424 32.8545 34.5434 32.0414C35.9129 31.7846 37.853 31.7561 39.3224 31.9772ZM61.3269 32.1983C61.5837 32.3053 61.6122 32.3338 61.6122 32.5763C61.6265 34.5235 61.5837 38.9741 61.5481 39.1596C61.5409 39.2238 61.17 39.2309 61.0131 39.1738C60.9132 39.1382 60.899 38.753 60.899 35.6076C60.899 33.3538 60.9275 32.0842 60.9703 32.0842C61.006 32.0842 61.17 32.1341 61.3269 32.1983ZM64.444 36.114L64.7007 36.221L64.6508 42.1267C64.5937 49.6514 64.5866 49.8725 64.3156 50.5216C63.8733 51.5843 63.8947 51.7983 63.9375 47.1337C63.9518 44.8014 63.9875 42.4405 64.0017 41.8913C64.016 41.3421 64.0303 39.7944 64.0374 38.4463C64.0374 36.8201 64.0588 36.007 64.1087 36.007C64.1515 36.007 64.3013 36.057 64.444 36.114ZM21.5476 37.89C21.5904 38.4677 21.5761 38.5248 21.3692 38.9813L21.141 39.4663L21.0554 38.753C20.9199 37.6118 20.9199 37.5619 21.1909 37.3907C21.3122 37.3051 21.4406 37.2481 21.462 37.2624C21.4834 37.2766 21.5262 37.5619 21.5476 37.89ZM17.1395 42.1909C17.2037 42.7757 17.703 46.6558 17.9598 48.5602C18.345 51.5059 18.3735 51.9267 18.2023 51.7484C18.1809 51.727 18.0168 50.7356 17.8457 49.5444C16.733 41.8557 16.7401 41.9056 16.8328 41.8485C17.0254 41.7201 17.0896 41.7915 17.1395 42.1909ZM22.2751 45.4575C22.3179 45.6359 22.5247 47.5688 22.5247 47.8041C22.5247 48.0038 22.268 48.1893 22.1538 48.0752C22.1182 48.0395 22.0255 47.4332 21.9541 46.7343C21.8757 46.0281 21.7972 45.2935 21.7758 45.1009L21.733 44.7443L21.9827 45.0296C22.1253 45.1865 22.2537 45.3791 22.2751 45.4575ZM28.0312 48.1465C28.1097 48.2178 28.1596 48.5031 28.2238 49.2734C28.3308 50.6642 28.3451 50.5573 28.0526 50.5573C27.7531 50.5573 27.7602 50.5786 27.6603 49.3233C27.5605 48.0466 27.5605 48.0609 27.7531 48.0609C27.8458 48.0609 27.967 48.1037 28.0312 48.1465ZM33.6804 48.2535C33.6946 48.3248 33.7303 48.7527 33.7588 49.2021C33.7802 49.6514 33.8444 50.6642 33.9015 51.4488C34.1012 54.3303 34.1083 54.6941 33.9871 54.6941C33.8516 54.6941 33.8373 54.5871 33.6804 52.5543C33.6233 51.7127 33.5163 50.3861 33.445 49.6086C33.3808 48.8312 33.338 48.1821 33.3594 48.1679C33.4379 48.0823 33.6447 48.1465 33.6804 48.2535ZM20.2708 49.6229C20.3136 49.6871 20.5846 51.9695 20.9199 55.0864C21.0197 56.0278 21.1196 56.9337 21.141 57.1048L21.1767 57.4115L20.9983 57.2974C20.8628 57.2047 20.8129 57.112 20.8129 56.9479C20.8129 56.4986 20.5062 53.5386 20.2708 51.727C20.1353 50.6999 20.0283 49.7941 20.0283 49.7085C20.0283 49.5587 20.1995 49.5016 20.2708 49.6229ZM61.4339 52.6043L61.384 55.5856L61.2057 55.8495C60.7991 56.4487 60.8205 56.5628 60.8419 53.2248L60.8562 50.165L61.1201 49.8939C61.2627 49.7513 61.4054 49.63 61.4339 49.63C61.4553 49.63 61.4553 50.9709 61.4339 52.6043ZM54.8361 57.3331C54.8718 61.477 54.8647 61.798 54.7505 61.9264C54.6792 62.0048 54.615 62.0548 54.5936 62.0334C54.5437 61.9763 54.4724 52.9395 54.5294 52.8896C54.558 52.861 54.6293 52.8468 54.6935 52.8539C54.7862 52.8753 54.8076 53.3817 54.8361 57.3331ZM31.5406 54.4944C31.5905 54.9366 31.7688 57.0549 31.8401 58.0535C31.8829 58.7239 31.8829 58.7453 31.726 58.7952C31.6404 58.8238 31.5406 58.8166 31.512 58.781C31.4621 58.731 31.3052 57.1476 31.1126 54.7083L31.0627 54.1235H31.2838C31.4906 54.1235 31.5049 54.1377 31.5406 54.4944ZM25.9342 56.9907C25.9841 57.0407 26.0198 57.219 26.0198 57.3973C26.0198 57.5827 26.1054 58.5456 26.1981 59.5441C26.4692 62.2759 26.4906 62.6468 26.3693 62.5754C26.1839 62.4685 26.0198 62.3044 26.0555 62.2616C26.0697 62.2331 26.0412 61.8765 25.9841 61.4699C25.9342 61.0562 25.87 60.3858 25.8415 59.9721C25.8129 59.5584 25.7488 58.8024 25.6917 58.296C25.5562 57.0478 25.5633 56.9051 25.7202 56.9051C25.7916 56.9051 25.8843 56.9408 25.9342 56.9907ZM29.308 61.7909C29.3294 61.9478 29.3722 62.5326 29.4007 63.089C29.4507 64.1588 29.4293 64.2373 29.1368 64.0162C29.0512 63.952 28.9942 63.681 28.9086 62.8679C28.7588 61.3986 28.7516 61.4556 29.0298 61.4842C29.2367 61.5056 29.2652 61.5341 29.308 61.7909Z" fill="black"/>
<path d="M26.7616 35.3936C26.0198 35.7146 25.9627 36.7203 26.6617 37.0769C27.1682 37.3337 27.6817 37.2124 27.9456 36.7702C28.4449 35.9571 27.6318 35.0156 26.7616 35.3936Z" fill="black"/>
<path d="M31.5976 36.0784C30.9129 36.4992 30.9129 37.512 31.5976 37.9328C32.2752 38.3394 33.1526 37.8044 33.1526 36.9913C33.1526 36.2068 32.2538 35.6789 31.5976 36.0784Z" fill="black"/>
</g>
<defs>
<clipPath id="clip0_72_524">
<rect width="80" height="80" fill="white"/>
</clipPath>
</defs>
</svg>
