<svg width="80" height="80" viewBox="0 0 80 80" fill="none" xmlns="http://www.w3.org/2000/svg">
<g clip-path="url(#clip0_588_1161)">
<circle cx="40" cy="39.7755" r="40" fill="#F5F5F5"/>
<g clip-path="url(#clip1_588_1161)">
<path d="M52.8334 18H27.1666C22.104 18 18 22.104 18 27.1666V52.8334C18 57.896 22.104 62 27.1666 62H52.8334C57.896 62 62 57.896 62 52.8334V27.1666C62 22.104 57.896 18 52.8334 18Z" fill="#1A73E8"/>
<mask id="mask0_588_1161" style="mask-type:alpha" maskUnits="userSpaceOnUse" x="18" y="18" width="44" height="44">
<path d="M52.8334 18H27.1666C22.104 18 18 22.104 18 27.1666V52.8334C18 57.896 22.104 62 27.1666 62H52.8334C57.896 62 62 57.896 62 52.8334V27.1666C62 22.104 57.896 18 52.8334 18Z" fill="#1A73E8"/>
</mask>
<g mask="url(#mask0_588_1161)">
<path fill-rule="evenodd" clip-rule="evenodd" d="M31.0655 30.7124V18H31.5655V30.7454C33.7336 28.7683 36.599 27.5428 39.7496 27.4811V18H40.2496V27.4811C43.4004 27.5428 46.2658 28.7682 48.434 30.7453V18H48.934V30.7121L60.8083 18.8378L61.1618 19.1914L49.2873 31.0658H61.9996V31.5658H49.2544C51.2315 33.734 52.4568 36.5994 52.5185 39.75H61.9996V40.25H52.5185C52.4568 43.4006 51.2314 46.266 49.2544 48.4342H62.0002V48.9342H49.2873L61.1599 60.8068L60.8064 61.1603L48.934 49.2879V62H48.434V49.2546C46.2658 51.2316 43.4004 52.457 40.2496 52.5187V62H39.7496V52.5187C36.599 52.457 33.7336 51.2316 31.5655 49.2546V62H31.0655V49.2877L19.192 61.1612L18.8385 60.8076L30.7119 48.9342H18.0001V48.4342H30.745C28.768 46.266 27.5426 43.4006 27.4809 40.25H17.9996V39.75H27.4809C27.5426 36.5994 28.768 33.734 30.745 31.5658H17.9996V31.0658H30.7118L18.8402 19.1943L19.1937 18.8407L31.0655 30.7124ZM31.0655 31.9568C29.1983 34.0295 28.0421 36.7553 27.981 39.75H31.0655V31.9568ZM31.0655 40.25H27.981C28.0421 43.2447 29.1983 45.9705 31.0655 48.0432V40.25ZM31.9565 48.9342C34.0292 50.8013 36.7549 51.9575 39.7496 52.0186V48.9342H31.9565ZM40.2496 48.9342V52.0186C43.2444 51.9575 45.9702 50.8013 48.0429 48.9342H40.2496ZM48.934 48.0431C50.8011 45.9705 51.9574 43.2447 52.0184 40.25H48.934V48.0431ZM48.934 39.75H52.0184C51.9574 36.7553 50.8011 34.0295 48.934 31.9568V39.75ZM48.043 31.0658C45.9703 29.1986 43.2445 28.0423 40.2496 27.9812V31.0658H48.043ZM39.7496 31.0658V27.9812C36.7549 28.0423 34.0291 29.1986 31.9564 31.0658H39.7496ZM31.5655 31.9195V39.75H39.396L31.5655 31.9195ZM39.3961 40.25H31.5655V48.0806L39.3961 40.25ZM39.7496 40.6036V48.4342H31.919L39.7496 40.6036ZM40.2496 40.6036V48.4342H48.0802L40.2496 40.6036ZM40.6031 40.25H48.434V48.0808L40.6031 40.25ZM40.6032 39.75H48.434V31.9192L40.6032 39.75ZM40.2496 39.3964V31.5658H48.0802L40.2496 39.3964ZM39.7496 39.3965V31.5658H31.9189L39.7496 39.3965Z" fill="white" fill-opacity="0.1"/>
</g>
<path fill-rule="evenodd" clip-rule="evenodd" d="M22.5774 40C22.5774 30.3777 30.3777 22.5774 40 22.5774C49.6224 22.5774 57.4226 30.3777 57.4226 40C57.4226 49.6224 49.6224 57.4226 40 57.4226C30.3777 57.4226 22.5774 49.6224 22.5774 40ZM40 23.2649C30.7574 23.2649 23.2649 30.7574 23.2649 40C23.2649 49.2427 30.7574 56.7351 40 56.7351C49.2427 56.7351 56.7351 49.2427 56.7351 40C56.7351 30.7574 49.2427 23.2649 40 23.2649Z" fill="white"/>
<path fill-rule="evenodd" clip-rule="evenodd" d="M30.9838 40C30.9838 35.0205 35.0205 30.9838 40 30.9838C44.9795 30.9838 49.0162 35.0205 49.0162 40C49.0162 44.9795 44.9795 49.0162 40 49.0162C35.0205 49.0162 30.9838 44.9795 30.9838 40ZM40 31.6713C35.4002 31.6713 31.6713 35.4002 31.6713 40C31.6713 44.5998 35.4002 48.3287 40 48.3287C44.5998 48.3287 48.3287 44.5998 48.3287 40C48.3287 35.4002 44.5998 31.6713 40 31.6713Z" fill="white"/>
<path fill-rule="evenodd" clip-rule="evenodd" d="M54.6955 31.6713H40.0002V30.9838H54.6955V31.6713ZM25.4271 31.4448L32.7747 44.1712L32.1794 44.515L24.8317 31.7885L25.4271 31.4448ZM32.8552 40C32.8552 36.054 36.054 32.8552 40 32.8552C43.9459 32.8552 47.1447 36.054 47.1447 40C47.1447 43.946 43.9459 47.1449 40 47.1449C36.054 47.1449 32.8552 43.946 32.8552 40ZM40 33.5427C36.4337 33.5427 33.5427 36.4337 33.5427 40C33.5427 43.5663 36.4337 46.4574 40 46.4574C43.5661 46.4574 46.4572 43.5663 46.4572 40C46.4572 36.4337 43.5661 33.5427 40 33.5427ZM39.8685 56.8986L47.2162 44.1719L47.8116 44.5157L40.4639 57.2423L39.8685 56.8986Z" fill="white"/>
</g>
</g>
<defs>
<clipPath id="clip0_588_1161">
<rect width="80" height="80" fill="white"/>
</clipPath>
<clipPath id="clip1_588_1161">
<rect width="44" height="44" fill="white" transform="translate(18 18)"/>
</clipPath>
</defs>
</svg>
