<svg width="80" height="80" viewBox="0 0 80 80" fill="none" xmlns="http://www.w3.org/2000/svg">
<g clip-path="url(#clip0_588_956)">
<circle cx="40" cy="39.7755" r="40" fill="#F5F5F5"/>
<g clip-path="url(#clip1_588_956)">
<path d="M20.0218 56.5695L26.7869 14.0386C26.8696 13.517 27.2824 13.1058 27.8122 13.0174C28.3419 12.929 28.8698 13.1834 29.1231 13.6489L36.1193 26.4695L38.908 21.2528C39.124 20.8495 39.5497 20.5969 40.0137 20.5969C40.4776 20.5969 40.9033 20.8495 41.1193 21.2528L59.9997 56.5694L20.0218 56.5695Z" fill="#FFA000"/>
<path d="M43.3934 40.0021L36.1161 26.4634L20.0219 56.5695L43.3934 40.0021Z" fill="#F57C00"/>
<path d="M60 56.5695L54.8185 25.0672C54.7402 24.6148 54.4116 24.2431 53.9666 24.1031C53.5215 23.963 53.0345 24.0796 52.704 24.4039L20.0219 56.569L38.1057 66.5328C39.2413 67.1557 40.6243 67.1557 41.76 66.5328L60 56.569V56.5695Z" fill="#FFCA28"/>
<path d="M54.8184 25.0672C54.7401 24.6148 54.4115 24.2432 53.9665 24.1031C53.5215 23.963 53.0345 24.0796 52.704 24.404L46.2173 30.7932L41.1165 21.2527C40.9006 20.8493 40.4748 20.5968 40.0109 20.5968C39.5469 20.5968 39.1212 20.8493 38.9052 21.2527L36.1165 26.4693L29.1199 13.6489C28.8662 13.1833 28.3377 12.9293 27.8074 13.0184C27.277 13.1075 26.8655 13.5197 26.7837 14.0417L20.0218 56.5695H20L20.0218 56.5941L20.1998 56.68L52.6945 24.7174C53.0249 24.3913 53.5131 24.2741 53.9593 24.4137C54.4055 24.5534 54.7347 24.9265 54.8122 25.3802L59.95 56.6001L60 56.5695L54.8184 25.0672ZM20.0811 56.5112L26.7869 14.3425C26.8686 13.8205 27.281 13.4083 27.8109 13.3192C28.3408 13.2301 28.8694 13.484 29.1235 13.9497L36.1193 26.7703L38.908 21.5537C39.124 21.1503 39.5498 20.8977 40.0137 20.8977C40.4776 20.8977 40.9033 21.1503 41.1193 21.5537L46.1166 30.8914L20.0811 56.5112Z" fill="white" fill-opacity="0.2"/>
<path opacity="0.2" d="M41.7599 66.2325C40.6243 66.8555 39.2413 66.8555 38.1057 66.2325L20.0655 56.2964L20.0218 56.5696L38.1057 66.5303C39.2413 67.1533 40.6243 67.1533 41.7599 66.5303L59.9999 56.5696L59.9531 56.2873L41.7599 66.2325Z" fill="#A52714"/>
</g>
</g>
<defs>
<clipPath id="clip0_588_956">
<rect width="80" height="80" fill="white"/>
</clipPath>
<clipPath id="clip1_588_956">
<rect width="40" height="54" fill="white" transform="translate(20 13)"/>
</clipPath>
</defs>
</svg>
