<svg width="80" height="80" viewBox="0 0 80 80" fill="none" xmlns="http://www.w3.org/2000/svg">
<g clip-path="url(#clip0_588_1225)">
<circle cx="40" cy="39.7755" r="40" fill="#F5F5F5"/>
<path d="M64 39.989L58.6764 33.8791L59.4182 25.7912L51.5418 23.989L47.4182 17L40 20.2088L32.5818 17L28.4582 23.989L20.5818 25.7692L21.3236 33.8571L16 39.989L21.3236 46.0989L20.5818 54.2088L28.4582 56.011L32.5818 63L40 59.7692L47.4182 62.978L51.5418 55.989L59.4182 54.1868L58.6764 46.0989L64 39.989ZM35.6364 50.978L26.9091 42.1868L29.9855 39.0879L35.6364 44.7582L50.0145 30.2747L53.0909 33.3956L35.6364 50.978Z" fill="#43A047"/>
</g>
<defs>
<clipPath id="clip0_588_1225">
<rect width="80" height="80" fill="white"/>
</clipPath>
</defs>
</svg>
