<svg width="80" height="80" viewBox="0 0 80 80" fill="none" xmlns="http://www.w3.org/2000/svg">
<g clip-path="url(#clip0_72_664)">
<path d="M40 80C62.0914 80 80 62.0914 80 40C80 17.9086 62.0914 0 40 0C17.9086 0 0 17.9086 0 40C0 62.0914 17.9086 80 40 80Z" fill="#F5F5F5"/>
<path d="M67.9072 37.4164L42.5836 12.0941C41.1255 10.6353 38.7603 10.6353 37.3009 12.0941L32.0429 17.3533L38.713 24.0234C40.2632 23.4994 42.0407 23.851 43.276 25.087C44.5189 26.3304 44.8673 28.1231 44.3301 29.679L50.7597 36.1079C52.3156 35.5714 54.1095 35.9186 55.3517 37.1627C57.0876 38.8985 57.0876 41.7112 55.3517 43.4483C53.6146 45.1848 50.802 45.1848 49.0642 43.4483C47.7589 42.1417 47.4357 40.2228 48.0978 38.6145L42.1013 32.6186V48.397C42.5242 48.6066 42.9238 48.8856 43.276 49.2378C45.0118 50.9736 45.0118 53.7863 43.276 55.5241C41.5402 57.2593 38.7256 57.2593 36.991 55.5241C35.2552 53.7857 35.2552 50.973 36.991 49.2378C37.4202 48.8092 37.917 48.4848 38.4472 48.2676V32.3421C37.917 32.125 37.4215 31.8037 36.991 31.3719C35.6762 30.0578 35.3599 28.1275 36.0341 26.5129L29.4587 19.9362L12.0941 37.299C10.6353 38.759 10.6353 41.1242 12.0941 42.5829L37.419 67.906C38.8771 69.3647 41.2416 69.3647 42.7016 67.906L67.9072 42.7003C69.3659 41.2416 69.3659 38.8752 67.9072 37.4164Z" fill="#F05133"/>
</g>
<defs>
<clipPath id="clip0_72_664">
<rect width="80" height="80" fill="white"/>
</clipPath>
</defs>
</svg>
