<svg width="80" height="80" viewBox="0 0 80 80" fill="none" xmlns="http://www.w3.org/2000/svg">
<g clip-path="url(#clip0_588_841)">
<circle cx="40" cy="39.7755" r="40" fill="#F5F5F5"/>
<path d="M40 12C36.1917 12 32.4206 12.7422 28.9022 14.1843C25.3837 15.6264 22.1868 17.74 19.4939 20.4046C14.0553 25.786 11 33.0847 11 40.6952C11 53.3784 19.323 64.1391 30.836 67.9556C32.286 68.1851 32.75 67.2956 32.75 66.5208C32.75 65.8608 32.75 64.053 32.75 61.6713C24.717 63.393 23.006 57.8262 23.006 57.8262C21.672 54.4975 19.787 53.608 19.787 53.608C17.148 51.8289 19.99 51.8863 19.99 51.8863C22.89 52.0871 24.427 54.8419 24.427 54.8419C26.95 59.2035 31.213 57.9122 32.866 57.2236C33.127 55.3584 33.881 54.0958 34.693 53.3784C28.255 52.661 21.498 50.1932 21.498 39.2604C21.498 36.0752 22.6 33.5214 24.485 31.484C24.195 30.7666 23.18 27.7823 24.775 23.9085C24.775 23.9085 27.211 23.1337 32.75 26.8354C35.041 26.2041 37.535 25.8885 40 25.8885C42.465 25.8885 44.959 26.2041 47.25 26.8354C52.789 23.1337 55.225 23.9085 55.225 23.9085C56.82 27.7823 55.805 30.7666 55.515 31.484C57.4 33.5214 58.502 36.0752 58.502 39.2604C58.502 50.2219 51.716 52.6323 45.249 53.3497C46.293 54.2393 47.25 55.9897 47.25 58.6583C47.25 62.5035 47.25 65.6025 47.25 66.5208C47.25 67.2956 47.714 68.2138 49.193 67.9556C60.706 64.1104 69 53.3784 69 40.6952C69 36.9269 68.2499 33.1954 66.7925 29.714C65.3351 26.2325 63.199 23.0692 60.5061 20.4046C57.8132 17.74 54.6163 15.6264 51.0978 14.1843C47.5794 12.7422 43.8083 12 40 12Z" fill="black"/>
</g>
<defs>
<clipPath id="clip0_588_841">
<rect width="80" height="80" fill="white"/>
</clipPath>
</defs>
</svg>
