<svg width="80" height="80" viewBox="0 0 80 80" fill="none" xmlns="http://www.w3.org/2000/svg">
<g clip-path="url(#clip0_72_478)">
<circle cx="40" cy="39.7755" r="40" fill="#F5F5F5"/>
<path d="M18.3928 53.0118L20.3751 54.1564L42.4591 15.9068L40.4768 14.7623L18.3928 53.0118Z" fill="#E535AB"/>
<path d="M62.1069 49.9561H17.9388V52.2452H62.1069V49.9561Z" fill="#E535AB"/>
<path d="M18.8128 51.242L40.9051 63.9974L42.0496 62.0151L19.9573 49.2597L18.8128 51.242Z" fill="#E535AB"/>
<path d="M38.0044 17.9983L60.0967 30.7536L61.2412 28.7713L39.1489 16.0159L38.0044 17.9983Z" fill="#E535AB"/>
<path d="M18.8189 28.7626L19.9634 30.7449L42.0557 17.9896L40.9112 16.0072L18.8189 28.7626Z" fill="#E535AB"/>
<path d="M37.6053 15.9073L59.6893 54.1568L61.6717 53.0123L39.5877 14.7627L37.6053 15.9073Z" fill="#E535AB"/>
<path d="M21.9792 27.2446H19.6901V52.7554H21.9792V27.2446Z" fill="#E535AB"/>
<path d="M60.3694 27.2446H58.0803V52.7554H60.3694V27.2446Z" fill="#E535AB"/>
<path d="M39.5156 61.2969L40.5154 63.0285L59.7297 51.9348L58.73 50.2032L39.5156 61.2969Z" fill="#E535AB"/>
<path d="M63.4031 53.5C62.0793 55.8029 59.1283 56.5889 56.8255 55.2651C54.5226 53.9413 53.7366 50.9903 55.0604 48.6874C56.3842 46.3846 59.3352 45.5986 61.638 46.9224C63.9547 48.26 64.7407 51.1971 63.4031 53.5Z" fill="#E535AB"/>
<path d="M24.9853 31.3126C23.6615 33.6154 20.7105 34.4014 18.4077 33.0776C16.1048 31.7538 15.3188 28.8029 16.6426 26.5C17.9664 24.1971 20.9174 23.4111 23.2202 24.7349C25.5231 26.0725 26.3091 29.0097 24.9853 31.3126Z" fill="#E535AB"/>
<path d="M16.6564 53.5C15.3326 51.1971 16.1186 48.26 18.4215 46.9224C20.7243 45.5986 23.6615 46.3846 24.9991 48.6874C26.3229 50.9903 25.5369 53.9275 23.234 55.2651C20.9174 56.5889 17.9802 55.8029 16.6564 53.5Z" fill="#E535AB"/>
<path d="M55.0742 31.3126C53.7504 29.0097 54.5364 26.0725 56.8393 24.7349C59.1421 23.4111 62.0793 24.1971 63.4169 26.5C64.7407 28.8029 63.9547 31.74 61.6518 33.0776C59.349 34.4014 56.398 33.6154 55.0742 31.3126Z" fill="#E535AB"/>
<path d="M40.0297 67C37.3683 67 35.2172 64.8488 35.2172 62.1875C35.2172 59.5261 37.3683 57.3749 40.0297 57.3749C42.6911 57.3749 44.8423 59.5261 44.8423 62.1875C44.8423 64.8351 42.6911 67 40.0297 67Z" fill="#E535AB"/>
<path d="M40.0297 22.6251C37.3683 22.6251 35.2172 20.474 35.2172 17.8126C35.2172 15.1512 37.3683 13 40.0297 13C42.6911 13 44.8423 15.1512 44.8423 17.8126C44.8423 20.474 42.6911 22.6251 40.0297 22.6251Z" fill="#E535AB"/>
</g>
<defs>
<clipPath id="clip0_72_478">
<rect width="80" height="80" fill="white"/>
</clipPath>
</defs>
</svg>
