<svg width="1211" height="1235" viewBox="0 0 1211 1235" fill="none" xmlns="http://www.w3.org/2000/svg">
<mask id="mask0_480_911" style="mask-type:alpha" maskUnits="userSpaceOnUse" x="0" y="-70" width="1211" height="1305">
<path d="M94.8333 -67.8366H2V32.1991H94.8333V-67.8366Z" stroke="white" stroke-width="3.5"/>
<path d="M187.667 -67.8366H94.8333V32.1991H187.667V-67.8366Z" stroke="white" stroke-width="3.5"/>
<path d="M280.5 -67.8366H187.667V32.1991H280.5V-67.8366Z" stroke="white" stroke-width="3.5"/>
<path d="M373.333 -67.8366H280.5V32.1991H373.333V-67.8366Z" stroke="white" stroke-width="3.5"/>
<path d="M466.167 -67.8366H373.333V32.1991H466.167V-67.8366Z" stroke="white" stroke-width="3.5"/>
<path d="M559 -67.8366H466.167V32.1991H559V-67.8366Z" stroke="white" stroke-width="3.5"/>
<path d="M651.833 -67.8366H559V32.1991H651.833V-67.8366Z" stroke="white" stroke-width="3.5"/>
<path d="M744.667 -67.8366H651.833V32.1991H744.667V-67.8366Z" stroke="white" stroke-width="3.5"/>
<path d="M837.5 -67.8366H744.667V32.1991H837.5V-67.8366Z" stroke="white" stroke-width="3.5"/>
<path d="M930.333 -67.8366H837.5V32.1991H930.333V-67.8366Z" stroke="white" stroke-width="3.5"/>
<path d="M1023.17 -67.8366H930.333V32.1991H1023.17V-67.8366Z" stroke="white" stroke-width="3.5"/>
<path d="M1116 -67.8366H1023.17V32.1991H1116V-67.8366Z" stroke="white" stroke-width="3.5"/>
<path d="M1208.83 -67.8366H1116V32.1991H1208.83V-67.8366Z" stroke="white" stroke-width="3.5"/>
<path d="M94.8333 32.1991H2V132.235H94.8333V32.1991Z" stroke="white" stroke-width="3.5"/>
<path d="M187.667 32.1991H94.8333V132.235H187.667V32.1991Z" stroke="white" stroke-width="3.5"/>
<path d="M280.5 32.1991H187.667V132.235H280.5V32.1991Z" stroke="white" stroke-width="3.5"/>
<path d="M373.333 32.1991H280.5V132.235H373.333V32.1991Z" stroke="white" stroke-width="3.5"/>
<path d="M466.167 32.1991H373.333V132.235H466.167V32.1991Z" stroke="white" stroke-width="3.5"/>
<path d="M559 32.1991H466.167V132.235H559V32.1991Z" stroke="white" stroke-width="3.5"/>
<path d="M651.833 32.1991H559V132.235H651.833V32.1991Z" stroke="white" stroke-width="3.5"/>
<path d="M744.667 32.1991H651.833V132.235H744.667V32.1991Z" stroke="white" stroke-width="3.5"/>
<path d="M837.5 32.1991H744.667V132.235H837.5V32.1991Z" stroke="white" stroke-width="3.5"/>
<path d="M930.333 32.1991H837.5V132.235H930.333V32.1991Z" stroke="white" stroke-width="3.5"/>
<path d="M1023.17 32.1991H930.333V132.235H1023.17V32.1991Z" stroke="white" stroke-width="3.5"/>
<path d="M1116 32.1991H1023.17V132.235H1116V32.1991Z" stroke="white" stroke-width="3.5"/>
<path d="M1208.83 32.1991H1116V132.235H1208.83V32.1991Z" stroke="white" stroke-width="3.5"/>
<path d="M94.8333 132.235H2V232.27H94.8333V132.235Z" stroke="white" stroke-width="3.5"/>
<path d="M187.667 132.235H94.8333V232.27H187.667V132.235Z" stroke="white" stroke-width="3.5"/>
<path d="M280.5 132.235H187.667V232.27H280.5V132.235Z" stroke="white" stroke-width="3.5"/>
<path d="M373.333 132.235H280.5V232.27H373.333V132.235Z" stroke="white" stroke-width="3.5"/>
<path d="M466.167 132.235H373.333V232.27H466.167V132.235Z" stroke="white" stroke-width="3.5"/>
<path d="M559 132.235H466.167V232.27H559V132.235Z" stroke="white" stroke-width="3.5"/>
<path d="M651.833 132.235H559V232.27H651.833V132.235Z" stroke="white" stroke-width="3.5"/>
<path d="M744.667 132.235H651.833V232.27H744.667V132.235Z" stroke="white" stroke-width="3.5"/>
<path d="M837.5 132.235H744.667V232.27H837.5V132.235Z" stroke="white" stroke-width="3.5"/>
<path d="M930.333 132.235H837.5V232.27H930.333V132.235Z" stroke="white" stroke-width="3.5"/>
<path d="M1023.17 132.235H930.333V232.27H1023.17V132.235Z" stroke="white" stroke-width="3.5"/>
<path d="M1116 132.235H1023.17V232.27H1116V132.235Z" stroke="white" stroke-width="3.5"/>
<path d="M1208.83 132.235H1116V232.27H1208.83V132.235Z" stroke="white" stroke-width="3.5"/>
<path d="M94.8333 232.271H2V332.306H94.8333V232.271Z" stroke="white" stroke-width="3.5"/>
<path d="M187.667 232.271H94.8333V332.306H187.667V232.271Z" stroke="white" stroke-width="3.5"/>
<path d="M280.5 232.271H187.667V332.306H280.5V232.271Z" stroke="white" stroke-width="3.5"/>
<path d="M373.333 232.271H280.5V332.306H373.333V232.271Z" stroke="white" stroke-width="3.5"/>
<path d="M466.167 232.271H373.333V332.306H466.167V232.271Z" stroke="white" stroke-width="3.5"/>
<path d="M559 232.271H466.167V332.306H559V232.271Z" stroke="white" stroke-width="3.5"/>
<path d="M651.833 232.271H559V332.306H651.833V232.271Z" stroke="white" stroke-width="3.5"/>
<path d="M744.667 232.271H651.833V332.306H744.667V232.271Z" stroke="white" stroke-width="3.5"/>
<path d="M837.5 232.271H744.667V332.306H837.5V232.271Z" stroke="white" stroke-width="3.5"/>
<path d="M930.333 232.271H837.5V332.306H930.333V232.271Z" stroke="white" stroke-width="3.5"/>
<path d="M1023.17 232.271H930.333V332.306H1023.17V232.271Z" stroke="white" stroke-width="3.5"/>
<path d="M1116 232.271H1023.17V332.306H1116V232.271Z" stroke="white" stroke-width="3.5"/>
<path d="M1208.83 232.271H1116V332.306H1208.83V232.271Z" stroke="white" stroke-width="3.5"/>
<path d="M94.8333 332.306H2V432.342H94.8333V332.306Z" stroke="white" stroke-width="3.5"/>
<path d="M187.667 332.306H94.8333V432.342H187.667V332.306Z" stroke="white" stroke-width="3.5"/>
<path d="M280.5 332.306H187.667V432.342H280.5V332.306Z" stroke="white" stroke-width="3.5"/>
<path d="M373.333 332.306H280.5V432.342H373.333V332.306Z" stroke="white" stroke-width="3.5"/>
<path d="M466.167 332.306H373.333V432.342H466.167V332.306Z" stroke="white" stroke-width="3.5"/>
<path d="M559 332.306H466.167V432.342H559V332.306Z" stroke="white" stroke-width="3.5"/>
<path d="M651.833 332.306H559V432.342H651.833V332.306Z" stroke="white" stroke-width="3.5"/>
<path d="M744.667 332.306H651.833V432.342H744.667V332.306Z" stroke="white" stroke-width="3.5"/>
<path d="M837.5 332.306H744.667V432.342H837.5V332.306Z" stroke="white" stroke-width="3.5"/>
<path d="M930.333 332.306H837.5V432.342H930.333V332.306Z" stroke="white" stroke-width="3.5"/>
<path d="M1023.17 332.306H930.333V432.342H1023.17V332.306Z" stroke="white" stroke-width="3.5"/>
<path d="M1116 332.306H1023.17V432.342H1116V332.306Z" stroke="white" stroke-width="3.5"/>
<path d="M1208.83 332.306H1116V432.342H1208.83V332.306Z" stroke="white" stroke-width="3.5"/>
<path d="M94.8333 432.342H2V532.378H94.8333V432.342Z" stroke="white" stroke-width="3.5"/>
<path d="M187.667 432.342H94.8333V532.378H187.667V432.342Z" stroke="white" stroke-width="3.5"/>
<path d="M280.5 432.342H187.667V532.378H280.5V432.342Z" stroke="white" stroke-width="3.5"/>
<path d="M373.333 432.342H280.5V532.378H373.333V432.342Z" stroke="white" stroke-width="3.5"/>
<path d="M466.167 432.342H373.333V532.378H466.167V432.342Z" stroke="white" stroke-width="3.5"/>
<path d="M559 432.342H466.167V532.378H559V432.342Z" stroke="white" stroke-width="3.5"/>
<path d="M651.833 432.342H559V532.378H651.833V432.342Z" stroke="white" stroke-width="3.5"/>
<path d="M744.667 432.342H651.833V532.378H744.667V432.342Z" stroke="white" stroke-width="3.5"/>
<path d="M837.5 432.342H744.667V532.378H837.5V432.342Z" stroke="white" stroke-width="3.5"/>
<path d="M930.333 432.342H837.5V532.378H930.333V432.342Z" stroke="white" stroke-width="3.5"/>
<path d="M1023.17 432.342H930.333V532.378H1023.17V432.342Z" stroke="white" stroke-width="3.5"/>
<path d="M1116 432.342H1023.17V532.378H1116V432.342Z" stroke="white" stroke-width="3.5"/>
<path d="M1208.83 432.342H1116V532.378H1208.83V432.342Z" stroke="white" stroke-width="3.5"/>
<path d="M94.8333 532.378H2V632.413H94.8333V532.378Z" stroke="white" stroke-width="3.5"/>
<path d="M187.667 532.378H94.8333V632.413H187.667V532.378Z" stroke="white" stroke-width="3.5"/>
<path d="M280.5 532.378H187.667V632.413H280.5V532.378Z" stroke="white" stroke-width="3.5"/>
<path d="M373.333 532.378H280.5V632.413H373.333V532.378Z" stroke="white" stroke-width="3.5"/>
<path d="M466.167 532.378H373.333V632.413H466.167V532.378Z" stroke="white" stroke-width="3.5"/>
<path d="M559 532.378H466.167V632.413H559V532.378Z" stroke="white" stroke-width="3.5"/>
<path d="M651.833 532.378H559V632.413H651.833V532.378Z" stroke="white" stroke-width="3.5"/>
<path d="M744.667 532.378H651.833V632.413H744.667V532.378Z" stroke="white" stroke-width="3.5"/>
<path d="M837.5 532.378H744.667V632.413H837.5V532.378Z" stroke="white" stroke-width="3.5"/>
<path d="M930.333 532.378H837.5V632.413H930.333V532.378Z" stroke="white" stroke-width="3.5"/>
<path d="M1023.17 532.378H930.333V632.413H1023.17V532.378Z" stroke="white" stroke-width="3.5"/>
<path d="M1116 532.378H1023.17V632.413H1116V532.378Z" stroke="white" stroke-width="3.5"/>
<path d="M1208.83 532.378H1116V632.413H1208.83V532.378Z" stroke="white" stroke-width="3.5"/>
<path d="M94.8333 632.413H2V732.449H94.8333V632.413Z" stroke="white" stroke-width="3.5"/>
<path d="M187.667 632.413H94.8333V732.449H187.667V632.413Z" stroke="white" stroke-width="3.5"/>
<path d="M280.5 632.413H187.667V732.449H280.5V632.413Z" stroke="white" stroke-width="3.5"/>
<path d="M373.333 632.413H280.5V732.449H373.333V632.413Z" stroke="white" stroke-width="3.5"/>
<path d="M466.167 632.413H373.333V732.449H466.167V632.413Z" stroke="white" stroke-width="3.5"/>
<path d="M559 632.413H466.167V732.449H559V632.413Z" stroke="white" stroke-width="3.5"/>
<path d="M651.833 632.413H559V732.449H651.833V632.413Z" stroke="white" stroke-width="3.5"/>
<path d="M744.667 632.413H651.833V732.449H744.667V632.413Z" stroke="white" stroke-width="3.5"/>
<path d="M837.5 632.413H744.667V732.449H837.5V632.413Z" stroke="white" stroke-width="3.5"/>
<path d="M930.333 632.413H837.5V732.449H930.333V632.413Z" stroke="white" stroke-width="3.5"/>
<path d="M1023.17 632.413H930.333V732.449H1023.17V632.413Z" stroke="white" stroke-width="3.5"/>
<path d="M1116 632.413H1023.17V732.449H1116V632.413Z" stroke="white" stroke-width="3.5"/>
<path d="M1208.83 632.413H1116V732.449H1208.83V632.413Z" stroke="white" stroke-width="3.5"/>
<path d="M94.8333 732.449H2V832.485H94.8333V732.449Z" stroke="white" stroke-width="3.5"/>
<path d="M187.667 732.449H94.8333V832.485H187.667V732.449Z" stroke="white" stroke-width="3.5"/>
<path d="M280.5 732.449H187.667V832.485H280.5V732.449Z" stroke="white" stroke-width="3.5"/>
<path d="M373.333 732.449H280.5V832.485H373.333V732.449Z" stroke="white" stroke-width="3.5"/>
<path d="M466.167 732.449H373.333V832.485H466.167V732.449Z" stroke="white" stroke-width="3.5"/>
<path d="M559 732.449H466.167V832.485H559V732.449Z" stroke="white" stroke-width="3.5"/>
<path d="M651.833 732.449H559V832.485H651.833V732.449Z" stroke="white" stroke-width="3.5"/>
<path d="M744.667 732.449H651.833V832.485H744.667V732.449Z" stroke="white" stroke-width="3.5"/>
<path d="M837.5 732.449H744.667V832.485H837.5V732.449Z" stroke="white" stroke-width="3.5"/>
<path d="M930.333 732.449H837.5V832.485H930.333V732.449Z" stroke="white" stroke-width="3.5"/>
<path d="M1023.17 732.449H930.333V832.485H1023.17V732.449Z" stroke="white" stroke-width="3.5"/>
<path d="M1116 732.449H1023.17V832.485H1116V732.449Z" stroke="white" stroke-width="3.5"/>
<path d="M1208.83 732.449H1116V832.485H1208.83V732.449Z" stroke="white" stroke-width="3.5"/>
<path d="M94.8333 832.484H2V932.52H94.8333V832.484Z" stroke="white" stroke-width="3.5"/>
<path d="M187.667 832.484H94.8333V932.52H187.667V832.484Z" stroke="white" stroke-width="3.5"/>
<path d="M280.5 832.484H187.667V932.52H280.5V832.484Z" stroke="white" stroke-width="3.5"/>
<path d="M373.333 832.484H280.5V932.52H373.333V832.484Z" stroke="white" stroke-width="3.5"/>
<path d="M466.167 832.484H373.333V932.52H466.167V832.484Z" stroke="white" stroke-width="3.5"/>
<path d="M559 832.484H466.167V932.52H559V832.484Z" stroke="white" stroke-width="3.5"/>
<path d="M651.833 832.484H559V932.52H651.833V832.484Z" stroke="white" stroke-width="3.5"/>
<path d="M744.667 832.484H651.833V932.52H744.667V832.484Z" stroke="white" stroke-width="3.5"/>
<path d="M837.5 832.484H744.667V932.52H837.5V832.484Z" stroke="white" stroke-width="3.5"/>
<path d="M930.333 832.484H837.5V932.52H930.333V832.484Z" stroke="white" stroke-width="3.5"/>
<path d="M1023.17 832.484H930.333V932.52H1023.17V832.484Z" stroke="white" stroke-width="3.5"/>
<path d="M1116 832.484H1023.17V932.52H1116V832.484Z" stroke="white" stroke-width="3.5"/>
<path d="M1208.83 832.484H1116V932.52H1208.83V832.484Z" stroke="white" stroke-width="3.5"/>
<path d="M94.8333 932.52H2V1032.56H94.8333V932.52Z" stroke="white" stroke-width="3.5"/>
<path d="M187.667 932.52H94.8333V1032.56H187.667V932.52Z" stroke="white" stroke-width="3.5"/>
<path d="M280.5 932.52H187.667V1032.56H280.5V932.52Z" stroke="white" stroke-width="3.5"/>
<path d="M373.333 932.52H280.5V1032.56H373.333V932.52Z" stroke="white" stroke-width="3.5"/>
<path d="M466.167 932.52H373.333V1032.56H466.167V932.52Z" stroke="white" stroke-width="3.5"/>
<path d="M559 932.52H466.167V1032.56H559V932.52Z" stroke="white" stroke-width="3.5"/>
<path d="M651.833 932.52H559V1032.56H651.833V932.52Z" stroke="white" stroke-width="3.5"/>
<path d="M744.667 932.52H651.833V1032.56H744.667V932.52Z" stroke="white" stroke-width="3.5"/>
<path d="M837.5 932.52H744.667V1032.56H837.5V932.52Z" stroke="white" stroke-width="3.5"/>
<path d="M930.333 932.52H837.5V1032.56H930.333V932.52Z" stroke="white" stroke-width="3.5"/>
<path d="M1023.17 932.52H930.333V1032.56H1023.17V932.52Z" stroke="white" stroke-width="3.5"/>
<path d="M1116 932.52H1023.17V1032.56H1116V932.52Z" stroke="white" stroke-width="3.5"/>
<path d="M1208.83 932.52H1116V1032.56H1208.83V932.52Z" stroke="white" stroke-width="3.5"/>
<path d="M94.8333 1032.56H2V1132.59H94.8333V1032.56Z" stroke="white" stroke-width="3.5"/>
<path d="M187.667 1032.56H94.8333V1132.59H187.667V1032.56Z" stroke="white" stroke-width="3.5"/>
<path d="M280.5 1032.56H187.667V1132.59H280.5V1032.56Z" stroke="white" stroke-width="3.5"/>
<path d="M373.333 1032.56H280.5V1132.59H373.333V1032.56Z" stroke="white" stroke-width="3.5"/>
<path d="M466.167 1032.56H373.333V1132.59H466.167V1032.56Z" stroke="white" stroke-width="3.5"/>
<path d="M559 1032.56H466.167V1132.59H559V1032.56Z" stroke="white" stroke-width="3.5"/>
<path d="M651.833 1032.56H559V1132.59H651.833V1032.56Z" stroke="white" stroke-width="3.5"/>
<path d="M744.667 1032.56H651.833V1132.59H744.667V1032.56Z" stroke="white" stroke-width="3.5"/>
<path d="M837.5 1032.56H744.667V1132.59H837.5V1032.56Z" stroke="white" stroke-width="3.5"/>
<path d="M930.333 1032.56H837.5V1132.59H930.333V1032.56Z" stroke="white" stroke-width="3.5"/>
<path d="M1023.17 1032.56H930.333V1132.59H1023.17V1032.56Z" stroke="white" stroke-width="3.5"/>
<path d="M1116 1032.56H1023.17V1132.59H1116V1032.56Z" stroke="white" stroke-width="3.5"/>
<path d="M1208.83 1032.56H1116V1132.59H1208.83V1032.56Z" stroke="white" stroke-width="3.5"/>
<path d="M94.8333 1132.59H2V1232.63H94.8333V1132.59Z" stroke="white" stroke-width="3.5"/>
<path d="M187.667 1132.59H94.8333V1232.63H187.667V1132.59Z" stroke="white" stroke-width="3.5"/>
<path d="M280.5 1132.59H187.667V1232.63H280.5V1132.59Z" stroke="white" stroke-width="3.5"/>
<path d="M373.333 1132.59H280.5V1232.63H373.333V1132.59Z" stroke="white" stroke-width="3.5"/>
<path d="M466.167 1132.59H373.333V1232.63H466.167V1132.59Z" stroke="white" stroke-width="3.5"/>
<path d="M559 1132.59H466.167V1232.63H559V1132.59Z" stroke="white" stroke-width="3.5"/>
<path d="M651.833 1132.59H559V1232.63H651.833V1132.59Z" stroke="white" stroke-width="3.5"/>
<path d="M744.667 1132.59H651.833V1232.63H744.667V1132.59Z" stroke="white" stroke-width="3.5"/>
<path d="M837.5 1132.59H744.667V1232.63H837.5V1132.59Z" stroke="white" stroke-width="3.5"/>
<path d="M930.333 1132.59H837.5V1232.63H930.333V1132.59Z" stroke="white" stroke-width="3.5"/>
<path d="M1023.17 1132.59H930.333V1232.63H1023.17V1132.59Z" stroke="white" stroke-width="3.5"/>
<path d="M1116 1132.59H1023.17V1232.63H1116V1132.59Z" stroke="white" stroke-width="3.5"/>
<path d="M1208.83 1132.59H1116V1232.63H1208.83V1132.59Z" stroke="white" stroke-width="3.5"/>
</mask>
<g mask="url(#mask0_480_911)">
<g filter="url(#filter0_f_480_911)">
<circle cx="634" cy="448" r="511" fill="#00264D"/>
</g>
</g>
<defs>
<filter id="filter0_f_480_911" x="-197" y="-383" width="1662" height="1662" filterUnits="userSpaceOnUse" color-interpolation-filters="sRGB">
<feFlood flood-opacity="0" result="BackgroundImageFix"/>
<feBlend mode="normal" in="SourceGraphic" in2="BackgroundImageFix" result="shape"/>
<feGaussianBlur stdDeviation="160" result="effect1_foregroundBlur_480_911"/>
</filter>
</defs>
</svg>
