<svg width="80" height="80" viewBox="0 0 80 80" fill="none" xmlns="http://www.w3.org/2000/svg">
<g clip-path="url(#clip0_737_1406)">
<path d="M40 80C62.0914 80 80 62.0914 80 40C80 17.9086 62.0914 0 40 0C17.9086 0 0 17.9086 0 40C0 62.0914 17.9086 80 40 80Z" fill="#F5F5F5"/>
<path d="M22.9112 61.2163L19 18H62L58.0888 61.193L40.4644 66" fill="#E44D26"/>
<path d="M40.5 62.3248V21.5469H58.0769L54.7227 58.4161" fill="#F16529"/>
<path d="M26.9885 26.8323H40.5V32.1293H32.8909L33.3887 37.5547H40.5V42.8401H28.4581M28.6952 45.5002H34.0998L34.4791 49.7355L40.5 51.3223V56.8527L29.4537 53.8191" fill="#EBEBEB"/>
<path d="M53.9642 26.8323H40.4763V32.1293H53.4664M52.9805 37.5547H40.4763V42.8517H47.1136L46.4854 49.7355L40.4763 51.3223V56.8294L51.4989 53.8191" fill="white"/>
</g>
<defs>
<clipPath id="clip0_737_1406">
<rect width="80" height="80" fill="white"/>
</clipPath>
</defs>
</svg>
