<svg width="80" height="80" viewBox="0 0 80 80" fill="none" xmlns="http://www.w3.org/2000/svg">
<g clip-path="url(#clip0_72_386)">
<circle cx="40" cy="40" r="40" fill="#F7DF1E"/>
<path d="M45.5092 47.8565C46.9151 50.1521 48.7443 51.8395 51.9795 51.8395C54.6972 51.8395 56.4333 50.4812 56.4333 48.6044C56.4333 46.3553 54.6496 45.5587 51.6582 44.2502L50.0184 43.5467C45.2854 41.5303 42.1411 39.0042 42.1411 33.664C42.1411 28.7448 45.8892 25 51.7468 25C55.917 25 58.9151 26.4514 61.0755 30.2516L55.968 33.531C54.8434 31.5146 53.6303 30.7202 51.7468 30.7202C49.8256 30.7202 48.608 31.9389 48.608 33.531C48.608 35.4987 49.8268 36.2953 52.6409 37.514L54.2806 38.2165C59.8535 40.6063 63 43.0426 63 48.5202C63 54.4254 58.3611 57.6606 52.1312 57.6606C46.0399 57.6606 42.1045 54.7578 40.1789 50.9532L45.5092 47.8565ZM22.3391 48.4249C23.3695 50.253 24.3068 51.7985 26.5603 51.7985C28.7152 51.7985 30.0746 50.9554 30.0746 47.677V25.3745H36.6336V47.7657C36.6336 54.5573 32.6517 57.6484 26.8395 57.6484C21.5879 57.6484 18.5467 54.9306 17 51.6573L22.3391 48.4249Z" fill="black"/>
</g>
<defs>
<clipPath id="clip0_72_386">
<rect width="80" height="80" fill="white"/>
</clipPath>
</defs>
</svg>
