<svg width="80" height="80" viewBox="0 0 80 80" fill="none" xmlns="http://www.w3.org/2000/svg">
<g clip-path="url(#clip0_72_510)">
<circle cx="40" cy="39.7755" r="40" fill="#F5F5F5"/>
<g clip-path="url(#clip1_72_510)">
<path d="M40.6558 60.747C40.4577 60.747 40.2611 60.695 40.0875 60.5951L38.2785 59.5241C38.0083 59.373 38.1402 59.3196 38.2293 59.2888C38.5895 59.1627 38.6626 59.1342 39.0472 58.9158C39.0876 58.8927 39.1405 58.9009 39.1818 58.9253L40.5715 59.7499C40.6217 59.7771 40.6929 59.7771 40.7394 59.7499L46.158 56.6223C46.2082 56.5938 46.2407 56.5354 46.2407 56.4758V50.2231C46.2407 50.1607 46.2082 50.1051 46.1569 50.0739L40.7405 46.9489C40.6903 46.9191 40.6239 46.9191 40.5737 46.9489L35.1584 50.0739C35.1059 50.1037 35.0726 50.1621 35.0726 50.2217V56.4744C35.0726 56.5341 35.1051 56.5911 35.1567 56.6195L36.6405 57.4767C37.4461 57.8796 37.9385 57.4049 37.9385 56.9274V50.7561C37.9385 50.668 38.0077 50.6002 38.0958 50.6002H38.7821C38.8676 50.6002 38.9381 50.668 38.9381 50.7561V56.9301C38.9381 58.0043 38.3522 58.6215 37.3336 58.6215C37.0203 58.6215 36.7734 58.6215 36.0844 58.2824L34.663 57.4632C34.3117 57.2597 34.0947 56.88 34.0947 56.4744V50.2217C34.0947 49.8148 34.3117 49.4351 34.663 49.2343L40.0869 46.1053C40.4301 45.9113 40.8858 45.9113 41.2262 46.1053L46.6434 49.2357C46.9933 49.4378 47.2117 49.8162 47.2117 50.2231V56.4758C47.2117 56.8813 46.9933 57.2597 46.6434 57.4632L41.2262 60.5922C41.0526 60.6926 40.856 60.7441 40.6552 60.7441" fill="#689F63"/>
<path d="M42.3295 56.4385C39.9586 56.4385 39.4615 55.3501 39.4615 54.4373C39.4615 54.3505 39.5315 54.2814 39.6184 54.2814H40.3183C40.3956 54.2814 40.4607 54.3376 40.4729 54.414C40.5787 55.1272 40.8934 55.4869 42.327 55.4869C43.4691 55.4869 43.9546 55.2289 43.9546 54.6233C43.9546 54.2747 43.8163 54.0157 42.0422 53.842C40.5584 53.6956 39.6415 53.3687 39.6415 52.1819C39.6415 51.0887 40.5638 50.4377 42.1087 50.4377C43.8434 50.4377 44.7033 51.0399 44.8118 52.3338C44.8159 52.3786 44.7996 52.422 44.7698 52.4545C44.7399 52.4857 44.6979 52.5047 44.6545 52.5047H43.9506C43.8773 52.5047 43.8136 52.4532 43.7986 52.3826C43.6291 51.6326 43.2195 51.3925 42.106 51.3925C40.8595 51.3925 40.7144 51.8265 40.7144 52.1521C40.7144 52.5468 40.8853 52.662 42.5671 52.8845C44.2327 53.1056 45.0234 53.4175 45.0234 54.588C45.0234 55.768 44.0387 56.4448 42.3216 56.4448M48.9215 49.8138H49.1032C49.2524 49.8138 49.2809 49.7093 49.2809 49.6483C49.2809 49.4882 49.1711 49.4882 49.11 49.4882H48.9229L48.9215 49.8138ZM48.7004 49.3011H49.1032C49.2416 49.3011 49.5129 49.3011 49.5129 49.6103C49.5129 49.826 49.3745 49.8707 49.2918 49.8978C49.4532 49.9087 49.464 50.0145 49.4857 50.1637C49.4966 50.2573 49.5142 50.4187 49.5468 50.4729H49.2986C49.2918 50.4187 49.2538 50.1203 49.2538 50.104C49.2375 50.0375 49.2145 50.005 49.1317 50.005H48.9269V50.4743H48.7004V49.3011ZM48.2162 49.8843C48.2162 50.3698 48.6082 50.7632 49.0897 50.7632C49.5752 50.7632 49.9672 50.3617 49.9672 49.8843C49.9672 49.3974 49.5698 49.0108 49.0883 49.0108C48.6136 49.0108 48.2148 49.3919 48.2148 49.8829M50.1354 49.887C50.1354 50.4621 49.6648 50.9314 49.091 50.9314C48.5214 50.9314 48.0467 50.4675 48.0467 49.887C48.0467 49.2956 48.5322 48.8426 49.091 48.8426C49.6539 48.8426 50.1341 49.297 50.1341 49.887" fill="#689F63"/>
<path fill-rule="evenodd" clip-rule="evenodd" d="M23.8765 36.2815C23.8765 36.0319 23.745 35.8027 23.5296 35.6786L17.7847 32.3733C17.6877 32.3163 17.5791 32.2865 17.469 32.2824H17.4096C17.2994 32.2865 17.1908 32.3163 17.0922 32.3733L11.3476 35.6786C11.1336 35.8034 11.0001 36.0326 11.0001 36.2822L11.0127 45.1851C11.0127 45.3086 11.0765 45.4238 11.185 45.4849C11.2908 45.55 11.4237 45.55 11.5295 45.4849L14.9447 43.529C15.1604 43.4007 15.2919 43.174 15.2919 42.9268V38.7677C15.2919 38.5195 15.4235 38.2902 15.6385 38.1668L17.0924 37.3294C17.2004 37.267 17.319 37.2361 17.4397 37.2361C17.5585 37.2361 17.6797 37.2668 17.7847 37.3293L19.238 38.1664C19.4531 38.2898 19.5852 38.519 19.5852 38.7673V42.9262C19.5852 43.173 19.7186 43.4009 19.9331 43.5284L23.3462 45.4828C23.4534 45.5466 23.5867 45.5466 23.6934 45.4828C23.7987 45.4218 23.8654 45.3065 23.8654 45.1831L23.8765 36.2815ZM50.9852 40.9169C50.9852 40.9789 50.9522 41.0363 50.8984 41.0669L48.9252 42.2043C48.8716 42.2351 48.8054 42.2351 48.752 42.2043L46.7785 41.0669C46.7243 41.0361 46.6917 40.9787 46.6917 40.9169V38.6388C46.6917 38.5767 46.7243 38.5195 46.7772 38.4883L48.7493 37.3489C48.8035 37.3177 48.87 37.3177 48.9242 37.3489L50.8977 38.4883C50.9519 38.5195 50.9845 38.5767 50.9845 38.6388L50.9852 40.9169ZM51.5182 24.0439C51.4105 23.984 51.2795 23.9856 51.1732 24.0476C51.0674 24.11 51.002 24.2239 51.002 24.3473V33.1635C51.002 33.2503 50.9559 33.3303 50.8807 33.3737C50.8061 33.4171 50.7132 33.4171 50.6379 33.3737L49.1989 32.5448C48.9846 32.4209 48.7206 32.4209 48.5055 32.5448L42.7588 35.8615C42.5441 35.9849 42.4116 36.2141 42.4116 36.461V43.0961C42.4116 43.3443 42.5441 43.5722 42.7588 43.697L48.5055 47.0159C48.7201 47.1393 48.9843 47.1393 49.1996 47.0159L54.9463 43.6956C55.1606 43.5708 55.2935 43.343 55.2935 43.0948V26.5584C55.2935 26.3067 55.1566 26.0752 54.9368 25.9521L51.5182 24.0439ZM70.655 38.5789C70.8685 38.4549 71 38.2259 71 37.9791V36.371C71 36.1236 70.8684 35.8954 70.6545 35.7709L64.9444 32.456C64.7287 32.3312 64.4642 32.3312 64.2486 32.456L58.5032 35.7722C58.2875 35.897 58.1559 36.1249 58.1559 36.3731V43.0055C58.1559 43.2551 58.2902 43.4856 58.5059 43.6091L64.2147 46.8629C64.4249 46.9836 64.6826 46.985 64.8955 46.867L68.3487 44.9478C68.4572 44.8867 68.5264 44.7714 68.5264 44.6467C68.5264 44.5219 68.46 44.4052 68.3514 44.3442L62.5708 41.0266C62.4623 40.9656 62.3958 40.8503 62.3958 40.7269V38.6463C62.3958 38.522 62.4609 38.4076 62.5694 38.3457L64.3679 37.3081C64.4751 37.2457 64.6066 37.2457 64.7138 37.3081L66.5136 38.3457C66.6208 38.4067 66.6872 38.522 66.6872 38.6455V40.2812C66.6872 40.4046 66.7537 40.5199 66.8608 40.5823C66.968 40.6433 67.1009 40.6433 67.2081 40.5809L70.655 38.5789Z" fill="#333333"/>
<path fill-rule="evenodd" clip-rule="evenodd" d="M64.5123 38.2686C64.553 38.2446 64.604 38.2446 64.6453 38.2686L65.748 38.9047C65.7892 38.9286 65.8144 38.9725 65.8144 39.02V40.2936C65.8144 40.341 65.7892 40.385 65.748 40.4089L64.6453 41.045C64.604 41.069 64.553 41.069 64.5123 41.045L63.4103 40.4089C63.3683 40.385 63.3425 40.341 63.3425 40.2936V39.02C63.3425 38.9725 63.3669 38.9286 63.409 38.9047L64.5123 38.2686Z" fill="#689F63"/>
<mask id="mask0_72_510" style="mask-type:luminance" maskUnits="userSpaceOnUse" x="26" y="32" width="14" height="15">
<path d="M32.7995 32.4891L27.0853 35.7873C26.8713 35.9107 26.74 36.1386 26.74 36.3849V42.9859C26.74 43.2323 26.8713 43.46 27.0853 43.5835L32.7999 46.8842C33.0135 47.0072 33.2769 47.0072 33.4903 46.8842L39.2039 43.5835C39.4169 43.46 39.5485 43.2322 39.5485 42.9859V36.3849C39.5485 36.1386 39.4169 35.9107 39.2026 35.7873L33.4897 32.4891C33.3826 32.4277 33.2632 32.3969 33.1439 32.3969C33.0245 32.3969 32.9052 32.4277 32.798 32.4891" fill="white"/>
</mask>
<g mask="url(#mask0_72_510)">
<path d="M45.3229 35.2273L29.2212 27.3348L20.9653 44.1769L37.0665 52.0697L45.3229 35.2273Z" fill="url(#paint0_linear_72_510)"/>
</g>
<mask id="mask1_72_510" style="mask-type:luminance" maskUnits="userSpaceOnUse" x="26" y="32" width="14" height="15">
<path d="M26.8816 43.405C26.9362 43.4759 27.0046 43.5373 27.085 43.5835L31.9868 46.4148L32.8033 46.8841C32.9254 46.9546 33.0645 46.9845 33.2013 46.9743C33.2468 46.9706 33.2924 46.9621 33.3369 46.9495L39.3636 35.9144C39.3175 35.8642 39.2635 35.8222 39.203 35.7869L35.4614 33.6263L33.4836 32.4883C33.4275 32.4557 33.3666 32.4327 33.3046 32.4164L26.8816 43.405Z" fill="white"/>
</mask>
<g mask="url(#mask1_72_510)">
<path d="M19.9198 37.5616L31.2892 52.9496L46.3255 41.8404L34.9554 26.4529L19.9198 37.5616Z" fill="url(#paint1_linear_72_510)"/>
</g>
<mask id="mask2_72_510" style="mask-type:luminance" maskUnits="userSpaceOnUse" x="27" y="32" width="13" height="15">
<path d="M33.0757 32.4007C32.9798 32.4102 32.886 32.44 32.7996 32.4891L27.1017 35.7778L33.2459 46.9689C33.3313 46.9566 33.4154 46.9282 33.4914 46.8842L39.2056 43.5835C39.3819 43.4812 39.5026 43.3081 39.5392 43.112L33.2757 32.4119C33.2296 32.4028 33.1835 32.3981 33.136 32.3981C33.117 32.3981 33.098 32.399 33.079 32.4008" fill="white"/>
</mask>
<g mask="url(#mask2_72_510)">
<path d="M27.1015 32.3981V46.9691H39.5367V32.3981H27.1015Z" fill="url(#paint2_linear_72_510)"/>
</g>
</g>
</g>
<defs>
<linearGradient id="paint0_linear_72_510" x1="37.2672" y1="31.2686" x2="29.0118" y2="48.1096" gradientUnits="userSpaceOnUse">
<stop offset="0.3" stop-color="#3E863D"/>
<stop offset="0.5" stop-color="#55934F"/>
<stop offset="0.8" stop-color="#5AAD45"/>
</linearGradient>
<linearGradient id="paint1_linear_72_510" x1="25.6727" y1="45.3438" x2="40.7095" y2="34.2334" gradientUnits="userSpaceOnUse">
<stop offset="0.57" stop-color="#3E863D"/>
<stop offset="0.72" stop-color="#619857"/>
<stop offset="1" stop-color="#76AC64"/>
</linearGradient>
<linearGradient id="paint2_linear_72_510" x1="27.1057" y1="39.684" x2="39.5391" y2="39.684" gradientUnits="userSpaceOnUse">
<stop offset="0.16" stop-color="#6BBF47"/>
<stop offset="0.38" stop-color="#79B461"/>
<stop offset="0.47" stop-color="#75AC64"/>
<stop offset="0.7" stop-color="#659E5A"/>
<stop offset="0.9" stop-color="#3E863D"/>
</linearGradient>
<clipPath id="clip0_72_510">
<rect width="80" height="80" fill="white"/>
</clipPath>
<clipPath id="clip1_72_510">
<rect width="60" height="36.7468" fill="white" transform="translate(11 24)"/>
</clipPath>
</defs>
</svg>
