<svg width="80" height="80" viewBox="0 0 80 80" fill="none" xmlns="http://www.w3.org/2000/svg">
<g clip-path="url(#clip0_54_171)">
<path d="M40 80C62.0914 80 80 62.0914 80 40C80 17.9086 62.0914 0 40 0C17.9086 0 0 17.9086 0 40C0 62.0914 17.9086 80 40 80Z" fill="#323542"/>
<mask id="mask0_54_171" style="mask-type:luminance" maskUnits="userSpaceOnUse" x="14" y="17" width="52" height="46">
<path d="M14 17H66V63H14V17Z" fill="white"/>
</mask>
<g mask="url(#mask0_54_171)">
<path d="M40 44.6043C40.6089 44.6043 41.2118 44.4851 41.7744 44.2534C42.3369 44.0218 42.8481 43.6822 43.2786 43.2542C43.7092 42.8261 44.0507 42.3179 44.2837 41.7587C44.5167 41.1994 44.6367 40.6 44.6367 39.9946C44.6367 39.3893 44.5167 38.7898 44.2837 38.2306C44.0507 37.6713 43.7092 37.1631 43.2786 36.7351C42.8481 36.307 42.3369 35.9675 41.7744 35.7358C41.2118 35.5042 40.6089 35.3849 40 35.3849C38.7703 35.3849 37.5909 35.8706 36.7214 36.7351C35.8518 37.5996 35.3633 38.772 35.3633 39.9946C35.3633 41.2172 35.8518 42.3897 36.7214 43.2542C37.5909 44.1186 38.7703 44.6043 40 44.6043Z" fill="#61DAFB"/>
<path d="M40 49.4402C53.7366 49.4402 64.8733 45.2074 64.8733 39.9946C64.8733 34.7818 53.7366 30.5706 40 30.5706C26.2633 30.5706 15.1266 34.7925 15.1266 40.0054C15.1266 45.2182 26.2633 49.4402 40 49.4402Z" stroke="#61DAFB"/>
<path d="M31.7666 44.7228C38.6458 56.5486 47.8975 64.0124 52.4366 61.4168C56.9758 58.7996 55.0908 47.103 48.2225 35.2772C41.3541 23.4514 32.1025 15.9768 27.5633 18.5832C23.0133 21.1896 24.9091 32.897 31.7775 44.7228H31.7666Z" stroke="#61DAFB"/>
<path d="M31.7667 35.2772C24.9092 47.103 23.0242 58.7996 27.5633 61.406C32.1133 64.0124 41.3542 56.5486 48.2225 44.712C55.0908 32.897 56.9758 21.1897 52.4367 18.5832C47.8867 15.9768 38.6458 23.4622 31.7667 35.2772Z" stroke="#61DAFB"/>
</g>
</g>
<defs>
<clipPath id="clip0_54_171">
<rect width="80" height="80" fill="white"/>
</clipPath>
</defs>
</svg>
