<svg width="80" height="80" viewBox="0 0 80 80" fill="none" xmlns="http://www.w3.org/2000/svg">
<g clip-path="url(#clip0_72_642)">
<circle cx="40" cy="39.7755" r="40" fill="#F5F5F5"/>
<path d="M40 12.8593C25.0373 12.8593 12.8592 25.0431 12.8592 40.0001C12.8592 54.957 25.043 67.1408 40 67.1408C54.9569 67.1408 67.1407 54.957 67.1407 40.0001C67.1407 25.0431 54.9569 12.8593 40 12.8593ZM39.9598 15.2708C40.4241 15.2828 40.8653 15.4763 41.1885 15.81C41.5155 16.1468 41.6969 16.5986 41.6937 17.068C41.6905 17.5375 41.5028 17.9868 41.1713 18.3191C40.962 18.5281 40.7041 18.6819 40.4208 18.7666C40.1374 18.8513 39.8375 18.8643 39.5478 18.8045C39.2582 18.7446 38.988 18.6137 38.7614 18.4236C38.5349 18.2335 38.3591 17.9901 38.2499 17.7153C38.1406 17.4404 38.1014 17.1428 38.1356 16.849C38.1699 16.5552 38.2765 16.2746 38.4461 16.0323C38.6156 15.7899 38.8426 15.5935 39.1069 15.4606C39.3711 15.3277 39.6641 15.2625 39.9598 15.2708ZM44.0478 18.2105C47.1825 18.7977 50.1519 20.0602 52.7496 21.9103C55.3474 23.7605 57.5112 26.1539 59.0909 28.9244L56.9837 33.6785C56.8109 34.074 56.8008 34.5217 56.9555 34.9247C57.1102 35.3276 57.4174 35.6534 57.8105 35.8316L61.8641 37.6288C61.9898 38.8959 62.0054 40.1712 61.91 41.4412H59.6536C59.4297 41.4412 59.3378 41.5905 59.3378 41.8087V42.8422C59.3378 45.2766 57.9655 45.8106 56.7598 45.9426C55.6115 46.0747 54.3426 45.4604 54.1818 44.7599C53.5043 40.9532 52.3789 40.1436 50.599 38.7369C52.8096 37.3359 55.1062 35.2632 55.1062 32.4957C55.1062 29.5043 53.0564 27.6211 51.6612 26.6967C49.6976 25.4048 47.5272 25.1464 46.9416 25.1464H23.6306C26.8539 21.5455 31.1745 19.1077 35.9234 18.2105L38.6736 21.0928C38.8208 21.2475 38.997 21.3716 39.1922 21.458C39.3874 21.5443 39.5978 21.5912 39.8112 21.596C40.0246 21.6008 40.2369 21.5634 40.4358 21.4859C40.6347 21.4085 40.8164 21.2924 40.9703 21.1445L44.0478 18.2105ZM18.6698 31.4278C18.9654 31.4333 19.255 31.5121 19.5126 31.6571C19.7703 31.8021 19.9879 32.0088 20.1461 32.2586C20.3042 32.5084 20.3979 32.7935 20.4187 33.0884C20.4395 33.3834 20.3869 33.6788 20.2654 33.9484C20.1327 34.2421 19.923 34.4944 19.6584 34.6786C19.3939 34.8628 19.0845 34.9719 18.763 34.9944C18.4415 35.017 18.1199 34.9521 17.8323 34.8066C17.5446 34.6612 17.3017 34.4406 17.1294 34.1682C16.957 33.8959 16.8615 33.582 16.8531 33.2598C16.8447 32.9376 16.9236 32.6192 17.0815 32.3382C17.2395 32.0572 17.4705 31.8243 17.7501 31.664C18.0297 31.5037 18.3475 31.4221 18.6698 31.4278ZM61.244 31.5082C61.5396 31.5137 61.8292 31.5925 62.0869 31.7375C62.3445 31.8825 62.5622 32.0892 62.7203 32.339C62.8784 32.5888 62.9721 32.8739 62.9929 33.1688C63.0138 33.4637 62.9611 33.7592 62.8396 34.0288C62.7069 34.3225 62.4972 34.5748 62.2327 34.759C61.9682 34.9431 61.6588 35.0523 61.3372 35.0748C61.0157 35.0974 60.6941 35.0325 60.4065 34.887C60.1189 34.7416 59.876 34.521 59.7036 34.2486C59.5312 33.9763 59.4357 33.6624 59.4273 33.3402C59.4189 33.018 59.4978 32.6995 59.6558 32.4186C59.8137 32.1376 60.0447 31.9046 60.3243 31.7444C60.604 31.5841 60.9218 31.5025 61.244 31.5082ZM22.0344 31.7953H25.1463V45.8278H18.865C18.0892 43.1037 17.8475 40.2552 18.153 37.4393L21.9999 35.7283C22.1953 35.6416 22.3716 35.5173 22.5189 35.3625C22.6661 35.2077 22.7815 35.0253 22.8582 34.8259C22.935 34.6265 22.9718 34.4139 22.9664 34.2003C22.9609 33.9866 22.9135 33.7762 22.8267 33.5809L22.0344 31.7953ZM35.022 31.9445H42.4344C42.8191 31.9445 45.1387 32.3866 45.1387 34.1264C45.1387 35.5675 43.3588 36.0843 41.8947 36.0843H35.0162L35.022 31.9445ZM35.022 42.0269H40.7004C41.2172 42.0269 43.4736 42.1761 44.1914 45.0584C44.4153 45.9426 44.9148 48.825 45.2536 49.7494C45.5923 50.7828 46.9646 52.8498 48.4287 52.8498H57.6957C57.0746 53.6816 56.3954 54.4682 55.6631 55.2039L51.8909 54.3943C51.4683 54.304 51.0272 54.3851 50.6644 54.6198C50.3016 54.8545 50.0468 55.2236 49.956 55.646L49.0603 59.8259C46.18 61.1307 43.0521 61.7984 39.8901 61.7836C36.7281 61.7687 33.6066 61.0716 30.7387 59.7398L29.843 55.5599C29.7987 55.351 29.7136 55.1528 29.5926 54.9768C29.4716 54.8008 29.3171 54.6503 29.1379 54.5341C28.9587 54.4178 28.7584 54.338 28.5484 54.2993C28.3383 54.2605 28.1227 54.2636 27.9138 54.3082L24.2219 55.1006C23.5368 54.3939 22.9 53.6419 22.3157 52.8498H40.2698C40.4708 52.8498 40.6086 52.8154 40.6086 52.6259V46.2757C40.6086 46.0919 40.4708 46.0517 40.2698 46.0517H35.0162L35.022 42.0269ZM26.7368 56.5704C27.0324 56.5759 27.322 56.6547 27.5796 56.7997C27.8373 56.9447 28.0549 57.1514 28.2131 57.4012C28.3712 57.651 28.4649 57.9361 28.4857 58.2311C28.5065 58.526 28.4538 58.8214 28.3324 59.091C28.1997 59.3847 27.99 59.637 27.7254 59.8212C27.4609 60.0054 27.1515 60.1145 26.83 60.1371C26.5085 60.1596 26.1869 60.0947 25.8992 59.9492C25.6116 59.8038 25.3687 59.5832 25.1964 59.3109C25.024 59.0385 24.9285 58.7246 24.9201 58.4024C24.9117 58.0802 24.9906 57.7618 25.1485 57.4808C25.3065 57.1999 25.5375 56.9669 25.8171 56.8066C26.0967 56.6463 26.4145 56.5647 26.7368 56.5704ZM53.177 56.6508C53.4726 56.6563 53.7622 56.7351 54.0199 56.8801C54.2775 57.0251 54.4952 57.2318 54.6533 57.4816C54.8114 57.7314 54.9051 58.0165 54.9259 58.3114C54.9468 58.6064 54.8941 58.9018 54.7726 59.1714C54.6399 59.4651 54.4302 59.7174 54.1657 59.9016C53.9012 60.0858 53.5918 60.1949 53.2702 60.2174C52.9487 60.24 52.6271 60.1751 52.3395 60.0296C52.0519 59.8842 51.809 59.6636 51.6366 59.3913C51.4642 59.1189 51.3687 58.805 51.3603 58.4828C51.3519 58.1606 51.4308 57.8422 51.5888 57.5612C51.7467 57.2802 51.9777 57.0473 52.2573 56.887C52.537 56.7267 52.8548 56.6451 53.177 56.6508Z" fill="black"/>
<path fill-rule="evenodd" clip-rule="evenodd" d="M65.6249 40.0001C65.6249 46.7962 62.9251 53.314 58.1195 58.1196C53.3139 62.9252 46.7961 65.625 40 65.625C33.2038 65.625 26.686 62.9252 21.8804 58.1196C17.0748 53.314 14.375 46.7962 14.375 40.0001C14.375 33.2039 17.0748 26.6861 21.8804 21.8805C26.686 17.0749 33.2038 14.3751 40 14.3751C46.7961 14.3751 53.3139 17.0749 58.1195 21.8805C62.9251 26.6861 65.6249 33.2039 65.6249 40.0001ZM65.1426 37.5254L69.1388 40.0001L65.1426 42.4747L68.5761 45.6843L64.178 47.3321L66.9225 51.1503L62.2775 51.9082L64.2297 56.1915L59.5273 56.025L60.6067 60.6068L56.0249 59.5274L56.1914 64.2298L51.9081 62.2776L51.1502 66.9226L47.332 64.1781L45.6842 68.5762L42.4746 65.1427L40 69.1389L37.5253 65.1427L34.3158 68.5762L32.6679 64.1781L28.8497 66.9226L28.0918 62.2776L23.8086 64.2298L23.9751 59.5274L19.3932 60.6068L20.4727 56.025L15.7703 56.1915L17.7224 51.9082L13.0774 51.1503L15.8219 47.3321L11.4238 45.6843L14.8573 42.4747L10.8612 40.0001L14.8573 37.5254L11.4238 34.3158L15.8219 32.668L13.0774 28.8498L17.7224 28.0919L15.7703 23.8087L20.4727 23.9752L19.3932 19.3933L23.9751 20.4728L23.8086 15.7704L28.0918 17.7225L28.8497 13.0775L32.6679 15.822L34.3158 11.4239L37.5253 14.8574L40 10.8613L42.4746 14.8574L45.6842 11.4239L47.332 15.822L51.1502 13.0775L51.9081 17.7225L56.1914 15.7704L56.0249 20.4728L60.6067 19.3933L59.5273 23.9752L64.2297 23.8087L62.2775 28.0919L66.9225 28.8498L64.178 32.668L68.5761 34.3158L65.1426 37.5254Z" fill="black"/>
<path fill-rule="evenodd" clip-rule="evenodd" d="M39.9999 10C40.1466 10 40.2908 10.0375 40.4189 10.1088C40.547 10.1801 40.6548 10.283 40.732 10.4077L42.6141 13.4467L45.0549 10.836C45.155 10.729 45.2807 10.6492 45.4202 10.6044C45.5598 10.5595 45.7084 10.551 45.8521 10.5796C45.9958 10.6083 46.1299 10.6731 46.2416 10.768C46.3532 10.8629 46.4388 10.9847 46.4903 11.1219L47.7437 14.4658L50.6472 12.3782C50.7663 12.2926 50.9052 12.2388 51.0509 12.2219C51.1966 12.2051 51.3441 12.2257 51.4796 12.2818C51.6151 12.3379 51.734 12.4277 51.8251 12.5426C51.9161 12.6576 51.9763 12.7938 52 12.9386L52.5764 16.4714L55.8342 14.9866C55.9678 14.9258 56.1146 14.9001 56.2609 14.9119C56.4072 14.9238 56.548 14.9728 56.67 15.0544C56.792 15.1359 56.8911 15.2473 56.958 15.3779C57.0248 15.5086 57.0572 15.6541 57.052 15.8008L56.9257 19.3755L60.4092 18.555C60.552 18.5214 60.7011 18.5248 60.8422 18.5649C60.9833 18.6051 61.1119 18.6806 61.2157 18.7843C61.3194 18.8881 61.3949 19.0167 61.4351 19.1578C61.4752 19.2989 61.4786 19.448 61.445 19.5908L60.6239 23.0743L64.1992 22.948C64.3459 22.9428 64.4914 22.9752 64.6221 23.042C64.7527 23.1089 64.8641 23.208 64.9456 23.33C65.0272 23.452 65.0762 23.5928 65.0881 23.7391C65.0999 23.8854 65.0742 24.0322 65.0134 24.1658L63.5286 27.4236L67.0614 28C67.206 28.0239 67.3422 28.0842 67.4571 28.1752C67.572 28.2662 67.6619 28.3849 67.7183 28.5202C67.7746 28.6557 67.7953 28.8033 67.7784 28.949C67.7615 29.0948 67.7076 29.2338 67.6218 29.3528L65.5342 32.2563L68.8781 33.5091C69.0153 33.5605 69.1371 33.646 69.232 33.7576C69.3268 33.8693 69.3916 34.0033 69.4201 34.147C69.4488 34.2908 69.4403 34.4395 69.3955 34.579C69.3507 34.7186 69.271 34.8444 69.164 34.9445L66.5533 37.3859L69.5923 39.268C69.717 39.3452 69.8198 39.453 69.8911 39.5811C69.9625 39.7092 69.9999 39.8534 69.9999 40C69.9999 40.1467 69.9625 40.2909 69.8911 40.419C69.8198 40.5471 69.717 40.6549 69.5923 40.7321L66.5533 42.6142L69.164 45.055C69.2707 45.1552 69.3502 45.281 69.3948 45.4205C69.4395 45.5599 69.4479 45.7084 69.4193 45.852C69.3907 45.9956 69.326 46.1296 69.2313 46.2413C69.1366 46.353 69.0151 46.4387 68.8781 46.4904L65.5342 47.7438L67.6218 50.6479C67.7073 50.767 67.7609 50.9059 67.7777 51.0514C67.7945 51.197 67.7739 51.3445 67.7178 51.4799C67.6617 51.6153 67.572 51.7341 67.4571 51.8251C67.3422 51.9162 67.2061 51.9764 67.0614 52.0001L63.5286 52.5765L65.0134 55.8343C65.0742 55.9679 65.0999 56.1147 65.0881 56.261C65.0762 56.4073 65.0272 56.5481 64.9456 56.6701C64.8641 56.7921 64.7527 56.8912 64.6221 56.9581C64.4914 57.0249 64.3459 57.0573 64.1992 57.0521L60.6245 56.9258L61.445 60.4093C61.4786 60.5521 61.4752 60.7012 61.4351 60.8423C61.3949 60.9834 61.3194 61.112 61.2157 61.2158C61.1119 61.3195 60.9833 61.395 60.8422 61.4352C60.7011 61.4753 60.552 61.4787 60.4092 61.4451L56.9257 60.624L57.052 64.1993C57.0572 64.346 57.0248 64.4915 56.958 64.6222C56.8911 64.7528 56.792 64.8642 56.67 64.9457C56.548 65.0273 56.4072 65.0763 56.2609 65.0882C56.1146 65.1 55.9678 65.0743 55.8342 65.0135L52.5764 63.5287L52 67.0615C51.9761 67.2061 51.9158 67.3423 51.8248 67.4572C51.7338 67.5721 51.6151 67.662 51.4798 67.7184C51.3443 67.7747 51.1967 67.7954 51.0509 67.7785C50.9052 67.7616 50.7662 67.7077 50.6472 67.6219L47.7437 65.5343L46.4909 68.8782C46.4395 69.0155 46.3539 69.1373 46.2421 69.2322C46.1304 69.3271 45.9962 69.3918 45.8524 69.4202C45.7087 69.4488 45.5602 69.4403 45.4207 69.3955C45.2813 69.3507 45.1556 69.271 45.0555 69.1641L42.6141 66.5534L40.732 69.5924C40.6548 69.7171 40.547 69.8199 40.4189 69.8912C40.2908 69.9626 40.1466 70 39.9999 70C39.8533 70 39.7091 69.9626 39.581 69.8912C39.4529 69.8199 39.3451 69.7171 39.2679 69.5924L37.3858 66.5534L34.945 69.1641C34.8448 69.2708 34.719 69.3503 34.5795 69.395C34.4401 69.4396 34.2916 69.4481 34.148 69.4194C34.0044 69.3908 33.8704 69.3261 33.7587 69.2314C33.647 69.1368 33.5613 69.0152 33.5096 68.8782L32.2562 65.5343L29.3521 67.6219C29.233 67.7074 29.0941 67.7611 28.9485 67.7778C28.803 67.7946 28.6555 67.774 28.5201 67.7179C28.3847 67.6618 28.2659 67.5721 28.1749 67.4572C28.0838 67.3423 28.0236 67.2062 27.9999 67.0615L27.4235 63.5287L24.1657 65.0135C24.0321 65.0743 23.8853 65.1 23.739 65.0882C23.5927 65.0763 23.4519 65.0273 23.3299 64.9457C23.2079 64.8642 23.1088 64.7528 23.0419 64.6222C22.975 64.4915 22.9427 64.346 22.9479 64.1993L23.0742 60.6246L19.5907 61.4451C19.4479 61.4787 19.2988 61.4753 19.1577 61.4352C19.0166 61.395 18.888 61.3195 18.7842 61.2158C18.6805 61.112 18.605 60.9834 18.5648 60.8423C18.5247 60.7012 18.5213 60.5521 18.5549 60.4093L19.376 56.9258L15.8007 57.0521C15.654 57.0573 15.5085 57.0249 15.3778 56.9581C15.2472 56.8912 15.1358 56.7921 15.0543 56.6701C14.9727 56.5481 14.9237 56.4073 14.9118 56.261C14.9 56.1147 14.9257 55.9679 14.9865 55.8343L16.4713 52.5765L12.9385 52.0001C12.7938 51.9764 12.6577 51.9162 12.5428 51.8251C12.4279 51.7341 12.3382 51.6153 12.2821 51.4799C12.226 51.3445 12.2054 51.197 12.2222 51.0514C12.239 50.9059 12.2926 50.767 12.3781 50.6479L14.4657 47.7438L11.1218 46.491C10.9846 46.4395 10.8628 46.3539 10.7679 46.2422C10.673 46.1306 10.6082 45.9965 10.5795 45.8528C10.5509 45.7091 10.5594 45.5604 10.6043 45.4209C10.6491 45.2814 10.7289 45.1557 10.8359 45.0556L13.4466 42.6142L10.4076 40.7321C10.2829 40.6549 10.1801 40.5471 10.1088 40.419C10.0374 40.2909 10 40.1467 10 40C10 39.8534 10.0374 39.7092 10.1088 39.5811C10.1801 39.453 10.2829 39.3452 10.4076 39.268L13.4466 37.3859L10.8359 34.9451C10.7289 34.845 10.6491 34.7193 10.6043 34.5797C10.5594 34.4402 10.5509 34.2916 10.5795 34.1479C10.6082 34.0041 10.673 33.8701 10.7679 33.7584C10.8628 33.6468 10.9846 33.5612 11.1218 33.5097L14.4657 32.2563L12.3781 29.3528C12.2925 29.2337 12.2387 29.0948 12.2218 28.9491C12.205 28.8034 12.2256 28.6559 12.2817 28.5204C12.3378 28.3849 12.4276 28.266 12.5425 28.1749C12.6575 28.0839 12.7937 28.0237 12.9385 28L16.4713 27.4236L14.9865 24.1658C14.9257 24.0322 14.9 23.8854 14.9118 23.7391C14.9237 23.5928 14.9727 23.452 15.0543 23.33C15.1358 23.208 15.2472 23.1089 15.3778 23.042C15.5085 22.9752 15.654 22.9428 15.8007 22.948L19.3754 23.0743L18.5549 19.5908C18.5213 19.448 18.5247 19.2989 18.5648 19.1578C18.605 19.0167 18.6805 18.8881 18.7842 18.7843C18.888 18.6806 19.0166 18.6051 19.1577 18.5649C19.2988 18.5248 19.4479 18.5214 19.5907 18.555L23.0742 19.3761L22.9479 15.8008C22.9427 15.6541 22.975 15.5086 23.0419 15.3779C23.1088 15.2473 23.2079 15.1359 23.3299 15.0544C23.4519 14.9728 23.5927 14.9238 23.739 14.9119C23.8853 14.9001 24.0321 14.9258 24.1657 14.9866L27.4235 16.4714L27.9999 12.9386C28.0236 12.7939 28.0838 12.6578 28.1749 12.5429C28.2659 12.428 28.3847 12.3383 28.5201 12.2822C28.6555 12.2261 28.803 12.2055 28.9485 12.2223C29.0941 12.2391 29.233 12.2927 29.3521 12.3782L32.2562 14.4658L33.509 11.1219C33.5605 10.9847 33.6461 10.8629 33.7578 10.768C33.8694 10.6731 34.0035 10.6083 34.1472 10.5796C34.2909 10.551 34.4396 10.5595 34.5791 10.6044C34.7186 10.6492 34.8443 10.729 34.9444 10.836L37.3858 13.4467L39.2679 10.4077C39.3451 10.283 39.4529 10.1801 39.581 10.1088C39.7091 10.0375 39.8533 10 39.9999 10ZM35.4572 13.906L34.635 13.0264L34.2124 14.1535C34.6252 14.0616 35.0397 13.979 35.4572 13.9066V13.906ZM32.1529 16.5127L32.1649 16.5214C32.2724 16.5986 32.3962 16.65 32.5267 16.6716C32.6572 16.6932 32.791 16.6845 32.9176 16.6461C33.0442 16.6076 33.1603 16.5406 33.2568 16.45C33.3533 16.3595 33.4276 16.2479 33.474 16.124L33.4797 16.1102C34.5936 15.8059 35.731 15.5791 36.8845 15.4327L36.896 15.4454C36.9863 15.542 37.0977 15.6166 37.2215 15.6632C37.3453 15.7099 37.4782 15.7274 37.6099 15.7144C37.7415 15.7014 37.8684 15.6583 37.9807 15.5883C38.093 15.5184 38.1877 15.4235 38.2574 15.311L38.266 15.2972C39.42 15.2163 40.5799 15.2163 41.7339 15.2972L41.7425 15.311C41.8122 15.4234 41.9069 15.5182 42.0191 15.5881C42.1314 15.658 42.2582 15.7011 42.3898 15.7141C42.5213 15.727 42.6541 15.7096 42.7779 15.663C42.9016 15.6164 43.013 15.5419 43.1033 15.4454L43.1154 15.4333C44.2689 15.5791 45.4063 15.8065 46.5201 16.1102L46.5259 16.124C46.5723 16.2479 46.6466 16.3595 46.7431 16.45C46.8396 16.5406 46.9557 16.6076 47.0823 16.6461C47.2089 16.6845 47.3427 16.6932 47.4732 16.6716C47.6037 16.65 47.7275 16.5986 47.835 16.5214L47.8465 16.5127C48.9457 16.8798 50.0178 17.3236 51.0549 17.8408L51.0583 17.8614C51.0797 17.9921 51.1309 18.116 51.2079 18.2236C51.2849 18.3313 51.3857 18.4197 51.5025 18.4821C51.6192 18.5444 51.7487 18.5791 51.881 18.5833C52.0133 18.5874 52.1448 18.5611 52.2652 18.5062L52.2836 18.4976C53.2878 19.0718 54.2507 19.7148 55.1648 20.4228L55.1642 20.4423C55.1595 20.5747 55.1854 20.7064 55.2399 20.8271C55.2944 20.9478 55.376 21.0543 55.4784 21.1384C55.5808 21.2224 55.7012 21.2817 55.8302 21.3117C55.9592 21.3416 56.0934 21.3414 56.2224 21.311L56.2419 21.3064C57.1153 22.0654 57.9346 22.8847 58.6936 23.7581L58.689 23.7776C58.6586 23.9066 58.6584 24.0408 58.6883 24.1698C58.7183 24.2988 58.7776 24.4192 58.8616 24.5216C58.9457 24.624 59.0522 24.7056 59.1729 24.7601C59.2936 24.8146 59.4253 24.8405 59.5577 24.8358L59.5772 24.8352C60.2854 25.7495 60.9287 26.7122 61.5024 27.7164L61.4938 27.7348C61.4389 27.8552 61.4126 27.9867 61.4167 28.119C61.4209 28.2513 61.4556 28.3808 61.5179 28.4975C61.5803 28.6143 61.6687 28.7151 61.7764 28.7921C61.884 28.8691 62.0079 28.9203 62.1385 28.9417L62.1592 28.9451C62.6764 29.982 63.1201 31.0539 63.4873 32.153L63.4786 32.165C63.4014 32.2725 63.35 32.3963 63.3284 32.5268C63.3068 32.6573 63.3155 32.7911 63.3539 32.9177C63.3924 33.0443 63.4594 33.1604 63.55 33.2569C63.6405 33.3534 63.7521 33.4277 63.876 33.4741L63.8897 33.4798C64.194 34.5937 64.4208 35.7311 64.5673 36.8846L64.5546 36.8961C64.458 36.9864 64.3834 37.0978 64.3367 37.2216C64.2901 37.3454 64.2726 37.4783 64.2856 37.61C64.2986 37.7416 64.3417 37.8685 64.4117 37.9808C64.4816 38.0931 64.5765 38.1878 64.689 38.2575L64.7028 38.2661C64.7837 39.4201 64.7837 40.58 64.7028 41.734L64.689 41.7426C64.5766 41.8123 64.4818 41.907 64.4119 42.0192C64.342 42.1315 64.2989 42.2583 64.2859 42.3899C64.2729 42.5214 64.2904 42.6542 64.337 42.778C64.3836 42.9017 64.4581 43.0131 64.5546 43.1034L64.5673 43.1155C64.4214 44.2648 64.195 45.4026 63.8897 46.5203L63.876 46.526C63.7521 46.5724 63.6405 46.6467 63.55 46.7432C63.4594 46.8397 63.3924 46.9558 63.3539 47.0824C63.3155 47.209 63.3068 47.3428 63.3284 47.4733C63.35 47.6038 63.4014 47.7276 63.4786 47.8351L63.4873 47.8466C63.1202 48.9458 62.6764 50.0179 62.1592 51.055L62.1385 51.0584C62.0079 51.0797 61.8839 51.1308 61.7762 51.2078C61.6685 51.2848 61.58 51.3856 61.5176 51.5024C61.4552 51.6192 61.4206 51.7487 61.4165 51.8811C61.4123 52.0134 61.4388 52.1449 61.4938 52.2653L61.5024 52.2837C60.9282 53.2879 60.2851 54.2508 59.5772 55.1649L59.5577 55.1643C59.4253 55.1596 59.2936 55.1855 59.1729 55.24C59.0522 55.2945 58.9457 55.3761 58.8616 55.4785C58.7776 55.5809 58.7183 55.7013 58.6883 55.8303C58.6584 55.9593 58.6586 56.0935 58.689 56.2225L58.6936 56.242C57.9346 57.1154 57.1153 57.9347 56.2419 58.6937L56.2224 58.6891C56.0934 58.6587 55.9592 58.6585 55.8302 58.6884C55.7012 58.7184 55.5808 58.7777 55.4784 58.8617C55.376 58.9458 55.2944 59.0523 55.2399 59.173C55.1854 59.2937 55.1595 59.4254 55.1642 59.5578L55.1648 59.5773C54.2505 60.2855 53.2878 60.9288 52.2836 61.5025L52.2652 61.4939C52.1448 61.439 52.0133 61.4127 51.881 61.4168C51.7487 61.421 51.6192 61.4557 51.5025 61.518C51.3857 61.5804 51.2849 61.6688 51.2079 61.7765C51.1309 61.8841 51.0797 62.008 51.0583 62.1387L51.0549 62.1593C50.018 62.6765 48.9461 63.1202 47.847 63.4874L47.8344 63.4788C47.727 63.4015 47.6032 63.3501 47.4726 63.3285C47.3421 63.3069 47.2083 63.3156 47.0817 63.354C46.9551 63.3925 46.839 63.4595 46.7426 63.5501C46.6461 63.6406 46.5717 63.7522 46.5253 63.8761L46.5201 63.8899C45.4025 64.1951 44.2647 64.4215 43.1154 64.5674L43.1039 64.5547C43.0135 64.4581 42.9022 64.3835 42.7784 64.3368C42.6546 64.2902 42.5217 64.2727 42.39 64.2857C42.2584 64.2987 42.1315 64.3418 42.0192 64.4118C41.9069 64.4817 41.8122 64.5766 41.7425 64.6891L41.7339 64.7029C40.5799 64.7838 39.42 64.7838 38.266 64.7029L38.2574 64.6891C38.1877 64.5767 38.093 64.4819 37.9808 64.412C37.8685 64.3421 37.7417 64.299 37.6101 64.286C37.4786 64.273 37.3458 64.2905 37.222 64.3371C37.0983 64.3837 36.9869 64.4582 36.8966 64.5547L36.8845 64.5674C35.7351 64.4215 34.5974 64.1951 33.4797 63.8899L33.474 63.8761C33.4276 63.7522 33.3533 63.6406 33.2568 63.5501C33.1603 63.4595 33.0442 63.3925 32.9176 63.354C32.791 63.3156 32.6572 63.3069 32.5267 63.3285C32.3962 63.3501 32.2724 63.4015 32.1649 63.4788L32.1534 63.4874C31.0542 63.1203 29.9821 62.6765 28.945 62.1593L28.9416 62.1387C28.9202 62.008 28.869 61.8841 28.792 61.7765C28.715 61.6688 28.6142 61.5804 28.4974 61.518C28.3807 61.4557 28.2512 61.421 28.1189 61.4168C27.9866 61.4127 27.8551 61.439 27.7347 61.4939L27.7163 61.5025C26.7121 60.9283 25.7492 60.2852 24.8351 59.5773L24.8357 59.5578C24.8404 59.4254 24.8145 59.2937 24.76 59.173C24.7055 59.0523 24.6239 58.9458 24.5215 58.8617C24.4191 58.7777 24.2987 58.7184 24.1697 58.6884C24.0407 58.6585 23.9065 58.6587 23.7775 58.6891L23.758 58.6937C22.8846 57.9347 22.0653 57.1154 21.3063 56.242L21.3109 56.2225C21.3413 56.0935 21.3415 55.9593 21.3116 55.8303C21.2816 55.7013 21.2223 55.5809 21.1383 55.4785C21.0542 55.3761 20.9477 55.2945 20.827 55.24C20.7063 55.1855 20.5746 55.1596 20.4422 55.1643L20.4227 55.1649C19.7145 54.2506 19.0712 53.2879 18.4975 52.2837L18.5061 52.2653C18.561 52.1449 18.5873 52.0134 18.5831 51.8811C18.579 51.7488 18.5443 51.6193 18.482 51.5026C18.4196 51.3858 18.3312 51.285 18.2235 51.208C18.1159 51.131 17.992 51.0798 17.8613 51.0584L17.8407 51.055C17.3235 50.0181 16.8798 48.9462 16.5126 47.8471L16.5212 47.8345C16.5985 47.7271 16.6499 47.6033 16.6715 47.4727C16.6931 47.3422 16.6844 47.2084 16.646 47.0818C16.6075 46.9552 16.5405 46.8391 16.4499 46.7427C16.3594 46.6462 16.2478 46.5718 16.1239 46.5254L16.1101 46.5203C15.8049 45.4026 15.5785 44.2648 15.4326 43.1155L15.4453 43.104C15.5419 43.0136 15.6165 42.9023 15.6631 42.7785C15.7098 42.6547 15.7273 42.5218 15.7143 42.3901C15.7013 42.2585 15.6582 42.1316 15.5882 42.0193C15.5183 41.907 15.4234 41.8123 15.3109 41.7426L15.2971 41.734C15.2161 40.5795 15.2161 39.4206 15.2971 38.2661L15.3109 38.2575C15.4233 38.1878 15.5181 38.0931 15.588 37.9809C15.6579 37.8686 15.701 37.7418 15.714 37.6102C15.7269 37.4787 15.7095 37.3459 15.6629 37.2221C15.6163 37.0984 15.5418 36.987 15.4453 36.8967L15.4326 36.8846C15.579 35.7311 15.8058 34.5937 16.1101 33.4798L16.1239 33.4741C16.2478 33.4277 16.3594 33.3534 16.4499 33.2569C16.5405 33.1604 16.6075 33.0443 16.646 32.9177C16.6844 32.7911 16.6931 32.6573 16.6715 32.5268C16.6499 32.3963 16.5985 32.2725 16.5212 32.165L16.5126 32.1535C16.8797 31.0543 17.3235 29.9822 17.8407 28.9451L17.8613 28.9417C17.992 28.9203 18.1159 28.8691 18.2235 28.7921C18.3312 28.7151 18.4196 28.6143 18.482 28.4975C18.5443 28.3808 18.579 28.2513 18.5831 28.119C18.5873 27.9867 18.561 27.8552 18.5061 27.7348L18.4975 27.7164C19.0717 26.7122 19.7147 25.7493 20.4227 24.8352L20.4422 24.8358C20.5746 24.8405 20.7063 24.8146 20.827 24.7601C20.9477 24.7056 21.0542 24.624 21.1383 24.5216C21.2223 24.4192 21.2816 24.2988 21.3116 24.1698C21.3415 24.0408 21.3413 23.9066 21.3109 23.7776L21.3063 23.7581C22.0653 22.8847 22.8846 22.0654 23.758 21.3064L23.7775 21.311C23.9065 21.3414 24.0407 21.3416 24.1697 21.3117C24.2987 21.2817 24.4191 21.2224 24.5215 21.1384C24.6239 21.0543 24.7055 20.9478 24.76 20.8271C24.8145 20.7064 24.8404 20.5747 24.8357 20.4423L24.8351 20.4228C25.7494 19.7146 26.7121 19.0713 27.7163 18.4976L27.7347 18.5062C27.8551 18.5611 27.9866 18.5874 28.1189 18.5833C28.2512 18.5791 28.3807 18.5444 28.4974 18.4821C28.6142 18.4197 28.715 18.3313 28.792 18.2236C28.869 18.116 28.9202 17.9921 28.9416 17.8614L28.945 17.8408C29.9819 17.3236 31.0538 16.8798 32.1529 16.5127ZM30.4562 15.2932C30.0608 15.4459 29.6691 15.608 29.2815 15.7795L29.4761 14.5881L30.4562 15.2932ZM25.8158 17.6318L24.7186 17.1317L24.7611 18.3369C25.107 18.0934 25.4586 17.8583 25.8158 17.6318ZM21.726 20.8276L20.5507 20.5508L20.8275 21.7261C21.1198 21.4195 21.4194 21.1199 21.726 20.8276ZM18.3368 24.7617L17.131 24.7193L17.6317 25.8165C17.8581 25.4592 18.0932 25.1076 18.3368 24.7617ZM15.7794 29.2821L14.588 29.4768L15.2931 30.4569C15.4458 30.0613 15.6078 29.6703 15.7794 29.2821ZM14.1534 34.2125L13.0263 34.6351L13.9059 35.4573C13.9789 35.0398 14.061 34.6247 14.1534 34.2125ZM13.5218 39.3656L12.4964 40L13.5207 40.6345C13.5105 40.2116 13.5105 39.7885 13.5207 39.3656H13.5218ZM13.9065 44.5428L13.0257 45.365L14.1528 45.7876C14.061 45.3742 13.9789 44.9597 13.9065 44.5428ZM15.2931 49.5438L14.5875 50.5239L15.7789 50.7185C15.6074 50.3309 15.4452 49.9392 15.2925 49.5438H15.2931ZM17.6317 54.1842L17.1316 55.2814L18.3368 55.2389C18.0933 54.893 17.8582 54.5414 17.6317 54.1842ZM20.8275 58.274L20.5507 59.4493L21.726 59.1725C21.4194 58.8802 21.1198 58.5806 20.8275 58.274ZM24.7611 61.6632L24.7186 62.869L25.8158 62.3683C25.4586 62.1418 25.107 61.9067 24.7611 61.6632ZM29.2815 64.2206L29.4761 65.412L30.4562 64.7069C30.0608 64.5542 29.6691 64.3921 29.2815 64.2206ZM34.2124 65.8466L34.635 66.9737L35.4572 66.0941C35.0397 66.0211 34.6246 65.939 34.2124 65.8466ZM39.3655 66.4782L39.9999 67.5031L40.6344 66.4788C40.2115 66.4889 39.7884 66.4887 39.3655 66.4782ZM44.5427 66.0935L45.3649 66.9737L45.7875 65.8466C45.3747 65.9385 44.9601 66.0211 44.5427 66.0935ZM49.5437 64.7069L50.5238 65.412L50.7184 64.2206C50.3309 64.3922 49.9387 64.5542 49.5437 64.7069ZM54.1841 62.3683L55.2813 62.8684L55.2388 61.6632C54.893 61.9068 54.5413 62.1419 54.1841 62.3683ZM58.2738 59.1725L59.4492 59.4493L59.1724 58.274C58.8801 58.5806 58.5804 58.8802 58.2738 59.1725ZM61.6631 55.2389L62.8689 55.2814L62.3682 54.1842C62.1417 54.5414 61.9066 54.893 61.6631 55.2389ZM64.2205 50.7185L65.4118 50.5245L64.7068 49.5438C64.5541 49.9392 64.392 50.3309 64.2205 50.7185ZM65.8465 45.7876L66.9736 45.365L66.094 44.5428C66.021 44.9602 65.9389 45.3754 65.8465 45.7876ZM66.4781 40.6345L67.503 40L66.4786 39.3656C66.4888 39.7885 66.4886 40.2116 66.4781 40.6345ZM66.0934 35.4573L66.9736 34.6351L65.8465 34.2125C65.9384 34.6253 66.021 35.0398 66.0934 35.4573ZM64.7068 30.4563L65.4118 29.4756L64.2205 29.2816C64.3921 29.6691 64.5541 30.0613 64.7068 30.4563ZM62.3682 25.8159L62.8683 24.7187L61.6631 24.7612C61.9067 25.107 62.1418 25.4587 62.3682 25.8159ZM59.1724 21.7261L59.4492 20.5508L58.2738 20.8276C58.5805 21.1204 58.8802 21.4195 59.1724 21.7261ZM55.2382 18.3369L55.2807 17.1311L54.1835 17.6318C54.5407 17.8582 54.8924 18.0933 55.2382 18.3369ZM50.7179 15.7795L50.5232 14.5881L49.5431 15.2932C49.9387 15.4459 50.3297 15.6079 50.7179 15.7795ZM45.7864 14.1535L45.3644 13.0264L44.5422 13.906C44.9596 13.979 45.3747 14.0611 45.7864 14.1535ZM40.6338 13.5219L39.9999 12.4965L39.3655 13.5208C39.7884 13.5106 40.2115 13.5106 40.6344 13.5208L40.6338 13.5219Z" fill="black"/>
</g>
<defs>
<clipPath id="clip0_72_642">
<rect width="80" height="80" fill="white"/>
</clipPath>
</defs>
</svg>
