<svg width="80" height="80" viewBox="0 0 80 80" fill="none" xmlns="http://www.w3.org/2000/svg">
<g clip-path="url(#clip0_54_159)">
<path d="M40 80C62.0914 80 80 62.0914 80 40C80 17.9086 62.0914 0 40 0C17.9086 0 0 17.9086 0 40C0 62.0914 17.9086 80 40 80Z" fill="#F5F5F5"/>
<mask id="mask0_54_159" style="mask-type:luminance" maskUnits="userSpaceOnUse" x="16" y="13" width="47" height="54">
<path d="M16 13H63V67H16V13Z" fill="white"/>
</mask>
<g mask="url(#mask0_54_159)">
<path d="M60.0125 20.1367C54.7494 12.9648 44.3825 10.8437 36.8919 15.4023L23.7588 23.4062C21.9829 24.4726 20.4592 25.8823 19.2852 27.5451C18.1113 29.2079 17.3129 31.0872 16.9414 33.0625C16.3149 36.385 16.8664 39.8127 18.508 42.8007C17.3792 44.432 16.6088 46.266 16.2437 48.1913C15.4849 52.2578 16.4885 56.4413 18.9976 59.7929C24.2362 66.9765 34.6031 69.0976 42.0937 64.539L55.239 56.5351C57.0149 55.4687 58.5386 54.059 59.7126 52.3962C60.8866 50.7333 61.6849 48.8541 62.0565 46.8788C62.6929 43.5624 62.1421 40.1289 60.4898 37.1406C61.6158 35.4999 62.3869 33.6718 62.7541 31.75C63.513 27.6835 62.5093 23.5 60.0002 20.1367" fill="#FF3E00"/>
<path d="M35.62 60.4843C33.5512 60.9974 31.3678 60.8918 29.3635 60.1816C27.3592 59.4714 25.6301 58.1907 24.4086 56.5116C23.5376 55.3458 22.9625 54.0017 22.7288 52.5859C22.495 51.1701 22.6092 49.7216 23.0622 48.3554L23.307 47.6288L23.9924 48.0976C25.5469 49.1992 27.2971 50.0312 29.1331 50.5585L29.6227 50.6991L29.5859 51.1679C29.5247 51.8359 29.7083 52.4921 30.1122 53.0429C30.8588 54.0741 32.2174 54.5546 33.4904 54.2382C33.7719 54.1562 34.0534 54.0507 34.2982 53.8866L47.4557 45.8827C48.1044 45.496 48.5573 44.8632 48.6919 44.1367C48.761 43.7716 48.7532 43.3969 48.6692 43.0347C48.5851 42.6725 48.4264 42.33 48.2023 42.0273C47.8328 41.5199 47.3096 41.1333 46.7033 40.9195C46.0971 40.7058 45.4369 40.6752 44.812 40.832C44.5305 40.9023 44.2612 41.0195 44.0042 41.1835L38.9859 44.2304C38.1659 44.7343 37.2602 45.1093 36.3177 45.3554C34.2458 45.87 32.059 45.7639 30.0521 45.0514C28.0452 44.339 26.3147 43.0544 25.094 41.371C24.3477 40.3726 23.8171 39.2416 23.5334 38.0442C23.2497 36.8469 23.2185 35.6074 23.4417 34.3984C23.6646 33.2096 24.1445 32.0784 24.8506 31.0775C25.5567 30.0766 26.4734 29.2279 27.5419 28.5859L40.6995 20.582C41.5276 20.078 42.4316 19.6985 43.3799 19.457C47.6148 18.4023 52.0945 19.9843 54.5914 23.4296C55.4624 24.5955 56.0375 25.9396 56.2712 27.3554C56.5049 28.7712 56.3908 30.2197 55.9378 31.5859L55.693 32.3124L55.0075 31.8437C53.4525 30.7496 51.7141 29.9174 49.8669 29.3828L49.3773 29.2421L49.4141 28.7734C49.4766 28.1084 49.2901 27.4438 48.8878 26.8984C48.519 26.3932 47.9979 26.0081 47.3941 25.7944C46.7904 25.5808 46.1328 25.5489 45.5096 25.7031C45.2281 25.7851 44.9466 25.8906 44.7018 26.0546L31.5443 34.0585C30.8956 34.4452 30.4427 35.0781 30.3203 35.8046C30.1734 36.5429 30.357 37.3046 30.8099 37.914C31.5565 38.9452 32.9029 39.4257 34.188 39.1093C34.4695 39.039 34.7388 38.9218 34.9958 38.7577L40.0141 35.7109C40.8383 35.2078 41.7382 34.8284 42.6823 34.5859C46.9294 33.5312 51.4091 35.1249 53.906 38.5702C54.6539 39.5701 55.1853 40.7031 55.4691 41.9026C55.7529 43.1021 55.7832 44.3438 55.5583 45.5546C55.3338 46.7414 54.8531 47.8702 54.1471 48.869C53.4411 49.8678 52.5252 50.7147 51.4581 51.3554L38.3005 59.3593C37.4682 59.8632 36.5747 60.2382 35.62 60.4843Z" fill="white"/>
</g>
</g>
<defs>
<clipPath id="clip0_54_159">
<rect width="80" height="80" fill="white"/>
</clipPath>
</defs>
</svg>
