<svg width="80" height="80" viewBox="0 0 80 80" fill="none" xmlns="http://www.w3.org/2000/svg">
<g clip-path="url(#clip0_737_1407)">
<path d="M40 80C62.0914 80 80 62.0914 80 40C80 17.9086 62.0914 0 40 0C17.9086 0 0 17.9086 0 40C0 62.0914 17.9086 80 40 80Z" fill="#F5F5F5"/>
<path fill-rule="evenodd" clip-rule="evenodd" d="M41.0005 25C34.3332 25 30.1673 28.3336 28.4998 35.0007C31.0001 31.6671 33.9168 30.4173 37.25 31.2502C39.1517 31.7253 40.5116 33.1052 42.0155 34.633C44.4669 37.1208 47.3043 40 53.5002 40C60.1665 40 64.3334 36.6664 66 30.0003C63.5006 33.3339 60.5839 34.5837 57.2508 33.7498C55.3481 33.2747 53.9882 31.8948 52.4842 30.368C50.0329 27.8782 47.1965 25 41.0005 25ZM28.4998 40C21.8335 40 17.6666 43.3336 16 50.0007C18.5003 46.6671 21.4171 45.4173 24.7492 46.2502C26.6519 46.7253 28.0118 48.1052 29.5158 49.633C31.9671 52.1208 34.8035 55 41.0005 55C47.6668 55 51.8337 51.6674 53.5002 45.0003C50.9999 48.3339 48.0832 49.5837 44.75 48.7508C42.8483 48.2747 41.4884 46.8948 39.9845 45.368C37.5331 42.8801 34.6957 40 28.4998 40Z" fill="#38BDF8"/>
</g>
<defs>
<clipPath id="clip0_737_1407">
<rect width="80" height="80" fill="white"/>
</clipPath>
</defs>
</svg>
