<svg width="80" height="80" viewBox="0 0 80 80" fill="none" xmlns="http://www.w3.org/2000/svg">
<g clip-path="url(#clip0_72_704)">
<path d="M40 80C62.0914 80 80 62.0914 80 40C80 17.9086 62.0914 0 40 0C17.9086 0 0 17.9086 0 40C0 62.0914 17.9086 80 40 80Z" fill="#F5F5F5"/>
<path d="M16 29H32V22H18C16.9 22 16 22.9 16 24V29Z" fill="#CCCCCC"/>
<path d="M48 22H32V29H48V22Z" fill="#999999"/>
<path d="M64 29H48V22H62C63.1 22 64 22.9 64 24V29Z" fill="#666666"/>
<path d="M62 58H18C16.9 58 16 57.1 16 56V28H64V56C64 57.1 63.1 58 62 58Z" fill="url(#paint0_linear_72_704)"/>
<g filter="url(#filter0_dd_72_704)">
<path d="M31.2 40.3L22.4 49.1C21.9 49.6 21.9 50.3 22.4 50.7L24.2 52.5C24.7 53 25.4 53 25.8 52.5L34.6 43.7C35.1 43.2 35.1 42.5 34.6 42.1L32.8 40.3C32.4 39.9 31.6 39.9 31.2 40.3Z" fill="url(#paint1_linear_72_704)"/>
<mask id="mask0_72_704" style="mask-type:alpha" maskUnits="userSpaceOnUse" x="22" y="40" width="13" height="13">
<path d="M31.2 40.3L22.4 49.1C21.9 49.6 21.9 50.3 22.4 50.7L24.2 52.5C24.7 53 25.4 53 25.8 52.5L34.6 43.7C35.1 43.2 35.1 42.5 34.6 42.1L32.8 40.3C32.4 39.9 31.6 39.9 31.2 40.3Z" fill="url(#paint2_linear_72_704)"/>
</mask>
<g mask="url(#mask0_72_704)">
<g filter="url(#filter1_dd_72_704)">
<path d="M25.8 33.3L34.6 42.1C35.1 42.6 35.1 43.3 34.6 43.7L32.8 45.5C32.3 46 31.6 46 31.2 45.5L22.4 36.7C21.9 36.2 21.9 35.5 22.4 35.1L24.2 33.3C24.6 32.9 25.4 32.9 25.8 33.3Z" fill="url(#paint3_linear_72_704)"/>
</g>
</g>
<path d="M25.8 33.3L34.6 42.1C35.1 42.6 35.1 43.3 34.6 43.7L32.8 45.5C32.3 46 31.6 46 31.2 45.5L22.4 36.7C21.9 36.2 21.9 35.5 22.4 35.1L24.2 33.3C24.6 32.9 25.4 32.9 25.8 33.3Z" fill="url(#paint4_linear_72_704)"/>
</g>
<g filter="url(#filter2_dd_72_704)">
<path d="M56 48H40C39.4 48 39 48.4 39 49V52C39 52.6 39.4 53 40 53H56C56.6 53 57 52.6 57 52V49C57 48.4 56.6 48 56 48Z" fill="url(#paint5_linear_72_704)"/>
</g>
</g>
<defs>
<filter id="filter0_dd_72_704" x="19.025" y="31" width="18.95" height="25.875" filterUnits="userSpaceOnUse" color-interpolation-filters="sRGB">
<feFlood flood-opacity="0" result="BackgroundImageFix"/>
<feColorMatrix in="SourceAlpha" type="matrix" values="0 0 0 0 0 0 0 0 0 0 0 0 0 0 0 0 0 0 127 0" result="hardAlpha"/>
<feOffset dy="0.5"/>
<feGaussianBlur stdDeviation="0.5"/>
<feColorMatrix type="matrix" values="0 0 0 0 0 0 0 0 0 0 0 0 0 0 0 0 0 0 0.1 0"/>
<feBlend mode="normal" in2="BackgroundImageFix" result="effect1_dropShadow_72_704"/>
<feColorMatrix in="SourceAlpha" type="matrix" values="0 0 0 0 0 0 0 0 0 0 0 0 0 0 0 0 0 0 127 0" result="hardAlpha"/>
<feOffset dy="1"/>
<feGaussianBlur stdDeviation="1.5"/>
<feColorMatrix type="matrix" values="0 0 0 0 0 0 0 0 0 0 0 0 0 0 0 0 0 0 0.2 0"/>
<feBlend mode="normal" in2="effect1_dropShadow_72_704" result="effect2_dropShadow_72_704"/>
<feBlend mode="normal" in="SourceGraphic" in2="effect2_dropShadow_72_704" result="shape"/>
</filter>
<filter id="filter1_dd_72_704" x="19.025" y="31" width="18.95" height="18.875" filterUnits="userSpaceOnUse" color-interpolation-filters="sRGB">
<feFlood flood-opacity="0" result="BackgroundImageFix"/>
<feColorMatrix in="SourceAlpha" type="matrix" values="0 0 0 0 0 0 0 0 0 0 0 0 0 0 0 0 0 0 127 0" result="hardAlpha"/>
<feOffset dy="0.5"/>
<feGaussianBlur stdDeviation="0.5"/>
<feColorMatrix type="matrix" values="0 0 0 0 0 0 0 0 0 0 0 0 0 0 0 0 0 0 0.1 0"/>
<feBlend mode="normal" in2="BackgroundImageFix" result="effect1_dropShadow_72_704"/>
<feColorMatrix in="SourceAlpha" type="matrix" values="0 0 0 0 0 0 0 0 0 0 0 0 0 0 0 0 0 0 127 0" result="hardAlpha"/>
<feOffset dy="1"/>
<feGaussianBlur stdDeviation="1.5"/>
<feColorMatrix type="matrix" values="0 0 0 0 0 0 0 0 0 0 0 0 0 0 0 0 0 0 0.2 0"/>
<feBlend mode="normal" in2="effect1_dropShadow_72_704" result="effect2_dropShadow_72_704"/>
<feBlend mode="normal" in="SourceGraphic" in2="effect2_dropShadow_72_704" result="shape"/>
</filter>
<filter id="filter2_dd_72_704" x="36" y="46" width="24" height="11" filterUnits="userSpaceOnUse" color-interpolation-filters="sRGB">
<feFlood flood-opacity="0" result="BackgroundImageFix"/>
<feColorMatrix in="SourceAlpha" type="matrix" values="0 0 0 0 0 0 0 0 0 0 0 0 0 0 0 0 0 0 127 0" result="hardAlpha"/>
<feOffset dy="0.5"/>
<feGaussianBlur stdDeviation="0.5"/>
<feColorMatrix type="matrix" values="0 0 0 0 0 0 0 0 0 0 0 0 0 0 0 0 0 0 0.1 0"/>
<feBlend mode="normal" in2="BackgroundImageFix" result="effect1_dropShadow_72_704"/>
<feColorMatrix in="SourceAlpha" type="matrix" values="0 0 0 0 0 0 0 0 0 0 0 0 0 0 0 0 0 0 127 0" result="hardAlpha"/>
<feOffset dy="1"/>
<feGaussianBlur stdDeviation="1.5"/>
<feColorMatrix type="matrix" values="0 0 0 0 0 0 0 0 0 0 0 0 0 0 0 0 0 0 0.2 0"/>
<feBlend mode="normal" in2="effect1_dropShadow_72_704" result="effect2_dropShadow_72_704"/>
<feBlend mode="normal" in="SourceGraphic" in2="effect2_dropShadow_72_704" result="shape"/>
</filter>
<linearGradient id="paint0_linear_72_704" x1="52.4462" y1="63.8257" x2="27.8217" y2="21.1748" gradientUnits="userSpaceOnUse">
<stop stop-color="#333333"/>
<stop offset="1" stop-color="#4D4D4D"/>
</linearGradient>
<linearGradient id="paint1_linear_72_704" x1="30.5276" y1="49.9959" x2="26.4841" y2="42.9924" gradientUnits="userSpaceOnUse">
<stop stop-color="#999999"/>
<stop offset="1" stop-color="#B3B3B3"/>
</linearGradient>
<linearGradient id="paint2_linear_72_704" x1="30.5276" y1="49.9959" x2="26.4841" y2="42.9924" gradientUnits="userSpaceOnUse">
<stop stop-color="#999999"/>
<stop offset="1" stop-color="#B3B3B3"/>
</linearGradient>
<linearGradient id="paint3_linear_72_704" x1="32.2747" y1="46.0336" x2="24.737" y2="32.9781" gradientUnits="userSpaceOnUse">
<stop stop-color="#CCCCCC"/>
<stop offset="1" stop-color="#E6E6E6"/>
</linearGradient>
<linearGradient id="paint4_linear_72_704" x1="32.2747" y1="46.0336" x2="24.737" y2="32.9781" gradientUnits="userSpaceOnUse">
<stop stop-color="#CCCCCC"/>
<stop offset="1" stop-color="#E6E6E6"/>
</linearGradient>
<linearGradient id="paint5_linear_72_704" x1="51.1496" y1="55.9553" x2="44.8504" y2="45.0447" gradientUnits="userSpaceOnUse">
<stop stop-color="#CCCCCC"/>
<stop offset="1" stop-color="#E6E6E6"/>
</linearGradient>
<clipPath id="clip0_72_704">
<rect width="80" height="80" fill="white"/>
</clipPath>
</defs>
</svg>
