<svg width="80" height="80" viewBox="0 0 80 80" fill="none" xmlns="http://www.w3.org/2000/svg">
<g clip-path="url(#clip0_72_652)">
<circle cx="40" cy="40" r="40" fill="#3178C6"/>
<path fill-rule="evenodd" clip-rule="evenodd" d="M43.128 49.1033V55.9298C44.2378 56.4987 45.5503 56.9252 47.0655 57.2097C48.5808 57.4941 50.1778 57.6364 51.8567 57.6364C53.4929 57.6364 55.0472 57.48 56.5198 57.167C57.9924 56.8542 59.2836 56.3386 60.3933 55.6204C61.503 54.9023 62.3816 53.9635 63.029 52.8045C63.6763 51.6454 64 50.2126 64 48.506C64 47.2686 63.8151 46.1843 63.4451 45.2528C63.0752 44.3213 62.5417 43.4929 61.8445 42.7675C61.1474 42.0422 60.3115 41.3915 59.3369 40.8155C58.3623 40.2395 57.2632 39.6955 56.0396 39.1836C55.1433 38.8138 54.3395 38.4548 53.628 38.1064C52.9166 37.7578 52.312 37.4023 51.814 37.0397C51.316 36.677 50.9319 36.293 50.6616 35.8877C50.3913 35.4823 50.256 35.0237 50.256 34.5117C50.256 34.0425 50.377 33.6193 50.6189 33.2424C50.8608 32.8655 51.2023 32.542 51.6433 32.2718C52.0844 32.0016 52.625 31.7918 53.2652 31.6425C53.9055 31.4931 54.6168 31.4185 55.3994 31.4185C55.9685 31.4185 56.5695 31.4612 57.2027 31.5465C57.8358 31.6318 58.4725 31.7634 59.1129 31.9411C59.7531 32.1189 60.3755 32.343 60.9802 32.6131C61.5849 32.8834 62.1433 33.1962 62.6555 33.5518V27.1733C61.6169 26.7751 60.4822 26.48 59.2515 26.288C58.0209 26.096 56.6087 26 55.0153 26C53.3932 26 51.8567 26.1743 50.4055 26.5227C48.9543 26.8711 47.6774 27.415 46.5746 28.1545C45.472 28.8942 44.6006 29.8363 43.9604 30.9812C43.3202 32.126 43 33.4948 43 35.0877C43 37.1214 43.5869 38.8565 44.7607 40.293C45.9344 41.7293 47.7164 42.9452 50.1067 43.9408C51.0457 44.3248 51.9208 44.7016 52.7317 45.0714C53.5427 45.4412 54.2435 45.8252 54.8338 46.2234C55.4242 46.6216 55.8902 47.0554 56.2318 47.5247C56.5732 47.994 56.744 48.5273 56.744 49.1247C56.744 49.5655 56.6372 49.9744 56.4238 50.3513C56.2104 50.7282 55.8866 51.0552 55.4527 51.3325C55.0188 51.6099 54.4781 51.8267 53.8308 51.9831C53.1834 52.1397 52.4259 52.2178 51.5579 52.2178C50.0782 52.2178 48.6129 51.9583 47.1615 51.4392C45.7104 50.9202 44.3658 50.1415 43.128 49.1033ZM31.6518 32.2839H40.4091V26.6818H16V32.2839H24.7145V57.2273H31.6518V32.2839Z" fill="white"/>
</g>
<defs>
<clipPath id="clip0_72_652">
<rect width="80" height="80" fill="white"/>
</clipPath>
</defs>
</svg>
