<svg width="80" height="80" viewBox="0 0 80 80" fill="none" xmlns="http://www.w3.org/2000/svg">
<g clip-path="url(#clip0_588_926)">
<circle cx="40" cy="39.7755" r="40" fill="#F5F5F5"/>
<path d="M40 11L65 25.4983V54.5017L40 69L15 54.5017V25.4983L40 11Z" fill="white"/>
<path d="M60.6453 53.5361L40.8686 65V56.0733L53.1909 49.1259L60.6453 53.5361ZM62 52.2808V28.3103L54.7661 32.5943V48.0035L62 52.2808ZM19.3547 53.5361L39.1314 65V56.0733L26.8026 49.1259L19.3547 53.5361ZM18 52.2808V28.3103L25.2339 32.5943V48.0035L18 52.2808ZM18.8491 26.7561L39.1314 15V23.6278L26.1349 30.9538L26.0312 31.0136L18.8491 26.7561ZM61.1509 26.7561L40.8686 15V23.6278L53.8651 30.9471L53.9688 31.0069L61.1509 26.7561Z" fill="#8ED6FB"/>
<path d="M39.1333 54L27 47.3511V34.1887L39.1333 41.1661V54ZM40.8667 54L53 47.3576V34.1887L40.8667 41.1661V54ZM27.8214 32.6682L40 26L52.1786 32.6682L40 39.6714L27.8214 32.6682Z" fill="#1C78C0"/>
</g>
<defs>
<clipPath id="clip0_588_926">
<rect width="80" height="80" fill="white"/>
</clipPath>
</defs>
</svg>
